<svg width="467" height="137" viewBox="0 0 467 137" fill="none" xmlns="http://www.w3.org/2000/svg">
<path d="M418.248 87.0941C411.184 103.523 397.76 118.937 378.215 126.306C362.667 132.17 344.894 132.466 327.728 132.511C271.762 132.658 128.704 131.263 72.8549 128.331C64.9375 127.915 56.8122 127.426 49.6269 124.715C37.9575 120.311 30.6802 110.829 24.9602 101.523C13.7122 83.2301 5.8402 63.5887 1.6842 43.4487C0.265529 36.5714 -0.722456 29.5261 0.674877 22.6461C2.07221 15.7674 6.11486 8.99672 13.1095 4.89405C23.1935 -1.02062 36.8615 -0.319278 49.2762 0.639389C125.37 6.51539 288.548 12.3941 364.642 18.2701C381.391 19.5647 398.986 21.1314 414.124 27.5007C419.922 29.9394 427.206 33.0101 427.982 38.7181C428.894 45.4381 426.678 53.4474 425.626 60.1234C424.186 69.2687 421.999 78.3687 418.248 87.0941Z" fill="#EC724D"/>
<g opacity="0.25">
<path d="M13.1095 4.89354C6.11487 8.9962 2.07221 15.7669 0.674873 22.6469C-0.72246 29.5269 0.26554 36.5722 1.68421 43.4482C5.84154 63.5882 13.7122 83.2295 24.9602 101.524C25.9789 103.183 27.0522 104.846 28.1869 106.486C43.8589 99.6415 58.4109 90.2242 70.9575 78.5989C80.1882 70.0455 88.3162 60.3162 95.1602 49.7575C100.838 40.9975 115.682 18.8442 114.079 4.72687C89.2469 3.36554 66.9189 2.00154 49.2762 0.640204C36.8615 -0.318463 23.1935 -1.02113 13.1095 4.89354Z" fill="white"/>
</g>
<path d="M418.248 87.0941C421.999 78.3701 424.186 69.2688 425.626 60.1235C426.678 53.4475 428.894 45.4381 427.98 38.7181C427.206 33.0101 419.922 29.9395 414.124 27.5008C398.986 21.1315 381.391 19.5648 364.642 18.2701C358.41 17.7888 351.584 17.3075 344.279 16.8261C343.776 25.4248 342.36 34.1075 340.927 42.5315C337.472 62.8235 331.976 82.7661 324.571 101.971C323.572 104.562 317.403 118.578 310.727 132.513C317.004 132.523 322.72 132.523 327.728 132.511C344.895 132.466 362.667 132.17 378.216 126.306C397.76 118.937 411.184 103.523 418.248 87.0941Z" fill="#EFCDCD"/>
<path d="M35.9878 7.07462C27.3838 7.07462 21.2518 8.32128 16.6891 10.9959C10.3398 14.7199 8.27448 20.7759 7.60781 24.0546C6.43048 29.8546 7.39581 36.1159 8.61315 42.0186C12.6145 61.4039 20.1425 80.1786 30.9878 97.8199C35.8558 105.739 42.1758 114.34 52.1251 118.096C58.4731 120.492 66.3105 120.903 73.2265 121.265C126.25 124.049 259.49 125.447 319.182 125.447C322.208 125.447 325.058 125.443 327.709 125.436C345.761 125.388 361.834 124.923 375.718 119.687C397.334 111.536 407.57 94.0173 411.748 84.2999C414.88 77.0186 417.069 68.9879 418.636 59.0239C418.901 57.3493 419.233 55.5959 419.574 53.7973C420.525 48.7959 421.508 43.6319 420.969 39.6706C420.816 38.5346 417.59 36.6346 411.384 34.0226C397.789 28.3053 381.924 26.7013 364.096 25.3253C326.157 22.3946 265.405 19.4093 206.654 16.5239C147.742 13.6306 86.8811 10.6399 48.7318 7.69461C44.8598 7.39461 40.3638 7.07462 35.9878 7.07462ZM319.182 126.733C259.478 126.733 126.205 125.335 73.1585 122.549C66.1505 122.183 58.2065 121.765 51.6705 119.299C41.3585 115.408 34.8745 106.599 29.8918 98.4919C18.9678 80.7239 11.3851 61.8106 7.35315 42.2786C6.10781 36.2426 5.12515 29.8253 6.34915 23.7986C7.05581 20.3106 9.25715 13.8639 16.0398 9.88661C20.8051 7.09061 27.1451 5.78795 35.9878 5.78795C40.4091 5.78795 44.9358 6.10927 48.8305 6.41194C86.9625 9.35594 147.816 12.3453 206.664 15.2359C265.477 18.1253 326.237 21.1093 364.194 24.0426C382.136 25.4279 398.109 27.0453 411.88 32.8359C417.092 35.0293 421.953 37.3533 422.244 39.4973C422.81 43.6666 421.809 48.9359 420.841 54.0306C420.5 55.8213 420.169 57.5626 419.908 59.2226C418.322 69.2959 416.105 77.4266 412.93 84.8079C408.673 94.7133 398.234 112.571 376.173 120.889C362.086 126.203 345.892 126.675 327.713 126.721C325.061 126.729 322.209 126.733 319.182 126.733Z" fill="white"/>
<path d="M360.399 9.51592C360.399 9.51592 366.729 -0.0480786 379.386 0.514588C392.043 1.07859 466.091 8.46126 466.091 8.46126C466.091 8.46126 457.109 51.0879 456.105 78.3599C455.331 99.3852 455.718 119.321 455.718 119.321C455.718 119.321 448.546 130.396 432.723 133.244L360.399 9.51592Z" fill="#313720"/>
<path d="M462.012 12.8206C462.012 12.8206 454.98 39.2619 452.659 62.9953C450.339 86.7286 451.183 116.79 451.183 116.79C451.183 116.79 440.424 126.81 430.824 128.603L435.783 30.6126L448.23 23.9313L462.012 12.8206Z" fill="#ECD5A7"/>
<path d="M459.539 14.8154C450.296 48.0527 446.956 83.5727 449.821 117.987C450.164 117.695 450.449 117.449 450.667 117.254C447.873 82.734 451.331 47.1154 460.741 13.8447L459.539 14.8154Z" fill="#D5BF99"/>
<path d="M453.813 21.2855C453.883 21.0442 453.744 20.7949 453.504 20.7242C453.263 20.6562 453.012 20.7949 452.944 21.0349C443.117 55.1295 438.419 90.2135 438.897 125.563C439.201 125.402 439.503 125.236 439.8 125.07C439.371 89.9722 444.056 55.1402 453.813 21.2855Z" fill="#D5BF99"/>
<path d="M456.665 17.1318L455.493 18.0758C446.654 52.1998 442.849 87.2024 444.145 122.34C444.446 122.134 444.74 121.929 445.026 121.724C443.781 86.4678 447.681 51.3505 456.665 17.1318Z" fill="#D5BF99"/>
<path d="M365.079 11.4143C365.079 11.4143 369.611 5.22633 378.472 5.08633C387.332 4.94499 462.012 12.821 462.012 12.821L451.183 23.2277L408.71 22.525L365.079 11.4143Z" fill="#FFEDB7"/>
<path d="M365.079 11.4143C365.079 11.4143 410.678 19.853 451.183 23.2277C451.183 23.2277 434.868 82.8597 435.431 136.304C435.431 136.304 386.77 132.928 352.703 116.052L365.079 11.4143Z" fill="#4F5E3B"/>
<path d="M365.079 11.4143L360.399 9.51564C360.399 9.51564 350.576 92.1863 346.358 113.072C346.358 113.072 346.962 114.964 352.703 116.052L365.079 11.4143Z" fill="#404B2D"/>
<path d="M374.205 5.66311C373.476 5.85111 372.796 6.07778 372.153 6.32978L458.081 16.5978L458.925 15.7871L374.205 5.66311Z" fill="#ECD5A7"/>
<path d="M369.428 7.67083C369.01 7.92417 368.625 8.18283 368.268 8.44017L455.38 19.1962L456.221 18.3868L369.428 7.67083Z" fill="#ECD5A7"/>
<path d="M452.169 22.2803L452.999 21.483L367.131 9.32434C366.799 9.607 366.51 9.871 366.258 10.1163L452.169 22.2803Z" fill="#ECD5A7"/>
<path d="M389.294 28.8689C397.091 30.3742 407.438 32.0942 419.79 33.5102C429.044 34.5729 435.375 43.3755 433.394 52.4795C433.366 52.6169 433.335 52.7529 433.306 52.8889C431.644 60.5542 424.578 65.8329 416.758 65.2249C406.954 64.4622 393.578 62.8649 382.024 59.5262C374.524 57.3582 369.711 50.0662 370.74 42.3275L370.752 42.2422C371.942 33.2822 380.419 27.1555 389.294 28.8689Z" fill="#A7BFB9"/>
<g opacity="0.149994">
<path d="M391.667 15.8596C391.843 22.093 392.399 28.3143 393.35 34.477C394.871 44.349 396.861 55.777 401.366 64.789C408.926 84.5543 420.81 102.638 435.87 117.5C438.446 69.7903 451.183 23.2276 451.183 23.2276C430.403 21.497 408.285 18.433 391.667 15.8596Z" fill="white"/>
</g>
</svg>
