<?xml version="1.0" encoding="utf-8"?>
<!-- Generator: Adobe Illustrator 27.5.0, SVG Export Plug-In . SVG Version: 6.00 Build 0)  -->
<svg version="1.1" id="Layer_1" xmlns="http://www.w3.org/2000/svg" xmlns:xlink="http://www.w3.org/1999/xlink" x="0px" y="0px"
	 viewBox="0 0 401.539 238.152" style="enable-background:new 0 0 401.539 238.152;" xml:space="preserve">
<g>
	<g>
		<path style="fill:#FFFFFF;" d="M25.845,214.045c0.223,2.508,0.433,4.878,2.024,7.458c0.986,1.603,2.271,2.978,3.823,4.089
			l0.221,0.154c1.258,0.858,2.652,1.465,4.122,1.797l0.135,0.03c0.417,0.092,0.991,0.207,1.726,0.275
			c1.647,0.153,3.345-0.037,4.905-0.552c6.398-2.107,30.115-8.985,66.665-8.985c27.371,0,55.794,3.833,84.474,11.395
			c0.238,0.063,0.48,0.118,0.727,0.167c2.904,0.886,8.619,2.324,15.113,2.325c5.083,0,9.771-0.876,13.938-2.605
			c28.54-7.486,56.818-11.281,84.047-11.281c36.559,0,60.267,6.877,66.671,8.988l0.143,0.047c1.511,0.475,3.152,0.649,4.759,0.502
			c0.732-0.07,1.318-0.186,1.797-0.293c1.524-0.338,3.006-0.99,4.28-1.878l0.134-0.095c1.555-1.116,2.833-2.48,3.787-4.042
			c1.614-2.598,1.826-4.981,2.049-7.504l0.024-0.285c0.322-2.583-0.216-5.25-1.516-7.51l-0.49-0.851l-0.545-1.097
			c0.15-0.533,0.263-1.078,0.336-1.626c0.089-0.405,0.157-0.815,0.204-1.229c1.609-2.933,1.905-6.43,0.816-9.588
			c0.313-2.1,0.058-4.231-0.746-6.21l-6.582-16.199c1.221-1.233,2.157-2.718,2.746-4.376c0.574-1.617,0.808-3.326,0.697-5.085
			c-0.038-0.578-0.116-1.139-0.23-1.684c-0.13-0.671-0.303-1.303-0.527-1.932c-0.133-0.374-0.3-0.779-0.451-1.103
			c-0.084-0.187-0.171-0.368-0.258-0.543L346.663,36.501c-1.082-3.35-3.574-6.03-6.837-7.354c-1.022-0.414-2.038-0.804-3.062-1.186
			l-1.268-0.463c-0.69-0.247-1.379-0.484-2.098-0.727l-0.364-0.123c-0.343-0.114-0.685-0.226-1.025-0.335l-0.611-0.191
			c-1.105-0.347-2.206-0.675-3.322-0.984l-0.352-0.1c-0.27-0.074-0.537-0.144-0.799-0.212l-0.481-0.125
			c-0.729-0.19-1.456-0.37-2.187-0.543l-0.721-0.167c-1.146-0.26-2.286-0.503-3.465-0.727l-0.389-0.069
			c-1.064-0.197-2.123-0.375-3.199-0.537l-0.53-0.08c-1.121-0.162-2.233-0.3-3.339-0.419l-0.688-0.069
			c-1.128-0.112-2.251-0.21-3.379-0.279l-0.141-0.008c-1.081-0.065-2.155-0.106-3.22-0.133l-0.643-0.015
			c-1.072-0.019-2.136-0.019-3.229,0.003l-0.593,0.016c-1.014,0.026-2.022,0.067-2.995,0.125l-0.314,0.018
			c-1.055,0.066-2.102,0.156-3.127,0.259l-0.709,0.073c-1.016,0.109-2.025,0.233-3.043,0.378l-0.526,0.08
			c-0.908,0.135-1.811,0.284-2.718,0.447l-0.529,0.095c-0.975,0.182-1.941,0.382-2.904,0.596l-0.723,0.163
			c-0.955,0.22-1.904,0.45-2.862,0.703l-0.396,0.108c-0.848,0.229-1.689,0.471-2.548,0.728l-0.664,0.2
			c-0.894,0.276-1.779,0.564-2.684,0.873l-0.706,0.246c-0.808,0.284-1.612,0.575-2.402,0.877l-0.447,0.169
			c-0.601,0.231-1.199,0.469-1.793,0.712c-0.162,0.066-0.321,0.136-0.479,0.208c-13.479,5.597-26.446,14.475-38.503,26.35
			l-0.205,0.197c-0.454,0.448-0.899,0.898-1.347,1.353l-0.729,0.741c-0.513,0.525-1.021,1.052-1.531,1.588l-0.861,0.919
			c-0.303,0.323-0.605,0.646-0.916,0.983l-0.794,0.872c-0.303,0.335-0.605,0.668-0.935,1.037l-4.056,4.711l-4.872,6.125
			c-0.963,1.264-1.881,2.501-2.778,3.741l-2.748,3.963c-7.795-7.912-20.774-17.631-39.377-20.744
			c-7.044-1.178-14.556-2.069-21.827-2.934c-14.403-1.709-29.297-3.477-39.314-7.384c-0.416-0.162-0.826-0.329-1.249-0.51
			l-0.939,2.181l0.826-2.23c-0.341-0.147-0.676-0.297-1.003-0.45l-0.165-0.075c-0.682-0.323-1.354-0.671-1.93-1l-0.204-0.118
			c-0.253-0.146-0.502-0.296-0.754-0.455l-0.094-0.059c-0.242-0.155-0.479-0.313-0.67-0.447l-0.183-0.134
			c-0.192-0.138-0.379-0.279-0.576-0.436l-0.124-0.098c-0.188-0.151-0.373-0.304-0.47-0.39l-0.124-0.111
			c-0.16-0.146-0.314-0.297-0.425-0.407l-0.139-0.146c-0.113-0.117-0.221-0.236-0.347-0.38l-0.076-0.085
			c-0.101-0.119-0.199-0.239-0.287-0.352l-0.093-0.131c-0.091-0.124-0.177-0.251-0.233-0.339l-0.097-0.155
			c-0.07-0.113-0.138-0.229-0.208-0.358l-0.065-0.116c-0.064-0.124-0.122-0.247-0.142-0.291l-0.081-0.197
			c-0.051-0.123-0.101-0.248-0.122-0.308l-0.073-0.206c-0.055-0.165-0.11-0.331-0.155-0.505c-1.295-4.979-5.614-8.541-10.749-8.864
			c-5.133-0.317-9.866,2.672-11.773,7.449l-39.697,99.446c-1.073,2.689-1.128,5.672-0.154,8.399
			c0.543,1.518,1.911,4.408,5.169,7.685l-6.474,16.283c-0.572,1.396-0.869,2.859-0.885,4.358l-1.114,2.584
			c-0.604,1.398-0.927,2.867-0.966,4.376c-1.6,2.645-2.098,5.802-1.405,8.801c-0.639,1.985-0.741,4.13-0.294,6.175l-0.065,0.144
			c-0.938,2.086-1.249,4.346-0.915,6.586l-0.449,0.788c-1.329,2.26-1.887,4.945-1.58,7.489L25.845,214.045z"/>
		<path style="fill:#F1F1F1;" d="M24.419,212.619c0.223,2.508,0.433,4.877,2.024,7.458c0.986,1.602,2.271,2.977,3.822,4.09
			l0.222,0.154c1.258,0.858,2.652,1.464,4.121,1.797l0.135,0.03c0.417,0.092,0.99,0.207,1.726,0.275
			c1.647,0.153,3.344-0.036,4.905-0.551c6.399-2.107,30.115-8.985,66.665-8.985c27.371,0,55.794,3.834,84.475,11.395
			c0.238,0.063,0.48,0.119,0.727,0.167c2.904,0.886,8.619,2.324,15.113,2.325c5.083,0,9.771-0.877,13.938-2.605
			c28.54-7.485,56.819-11.281,84.047-11.281c36.559,0,60.267,6.878,66.671,8.988l0.143,0.046c1.511,0.475,3.151,0.653,4.759,0.504
			c0.732-0.068,1.318-0.188,1.797-0.293c1.524-0.338,3.006-0.99,4.281-1.878l0.134-0.095c1.556-1.116,2.827-2.483,3.787-4.041
			c1.605-2.605,1.825-4.982,2.049-7.505l0.025-0.284c0.322-2.583-0.217-5.25-1.517-7.51l-0.489-0.851l-0.545-1.097
			c0.15-0.534,0.262-1.078,0.336-1.627c0.089-0.404,0.157-0.815,0.204-1.229c1.609-2.934,1.905-6.431,0.815-9.588
			c0.313-2.098,0.059-4.231-0.745-6.21l-6.582-16.199c1.221-1.232,2.157-2.719,2.745-4.376c0.574-1.617,0.809-3.326,0.697-5.086
			c-0.039-0.578-0.119-1.139-0.23-1.684c-0.135-0.67-0.303-1.302-0.527-1.932c-0.133-0.374-0.302-0.778-0.452-1.103
			c-0.085-0.187-0.17-0.368-0.258-0.542l-38.2-118.218c-1.082-3.35-3.575-6.03-6.837-7.352c-1.022-0.416-2.038-0.805-3.062-1.187
			l-1.268-0.463c-0.691-0.247-1.379-0.484-2.098-0.726l-0.364-0.123c-0.343-0.114-0.685-0.228-1.026-0.336l-0.611-0.191
			c-1.104-0.347-2.205-0.673-3.321-0.984l-0.352-0.1c-0.27-0.073-0.538-0.144-0.799-0.212l-0.482-0.125
			c-0.729-0.189-1.456-0.369-2.186-0.542l-0.721-0.168c-1.146-0.261-2.287-0.503-3.466-0.727l-0.389-0.069
			c-1.064-0.198-2.124-0.375-3.2-0.537l-0.53-0.08c-1.121-0.162-2.233-0.3-3.338-0.419l-0.688-0.069
			c-1.128-0.113-2.251-0.21-3.379-0.28l-0.141-0.007c-1.082-0.065-2.155-0.107-3.22-0.133l-0.643-0.015
			c-1.072-0.02-2.137-0.019-3.23,0.002l-0.593,0.015c-1.014,0.026-2.022,0.068-2.995,0.126l-0.314,0.017
			c-1.055,0.067-2.102,0.157-3.127,0.259l-0.71,0.073c-1.016,0.109-2.025,0.233-3.043,0.378l-0.525,0.081
			c-0.908,0.135-1.811,0.284-2.718,0.448l-0.529,0.094c-0.975,0.183-1.941,0.383-2.904,0.596l-0.723,0.164
			c-0.955,0.22-1.905,0.45-2.862,0.703l-0.396,0.108c-0.848,0.229-1.689,0.47-2.548,0.728l-0.665,0.2
			c-0.893,0.275-1.778,0.564-2.683,0.873l-0.706,0.246c-0.808,0.283-1.612,0.575-2.402,0.876l-0.447,0.169
			c-0.601,0.232-1.199,0.469-1.793,0.712c-0.163,0.067-0.321,0.137-0.479,0.209c-13.479,5.598-26.446,14.476-38.503,26.351
			l-0.205,0.196c-0.454,0.449-0.899,0.899-1.348,1.354l-0.729,0.741c-0.513,0.525-1.021,1.051-1.531,1.588l-0.861,0.919
			c-0.303,0.322-0.605,0.644-0.917,0.982l-0.794,0.873c-0.304,0.335-0.606,0.668-0.935,1.037l-4.056,4.711l-4.873,6.125
			c-0.962,1.264-1.88,2.502-2.778,3.742l-2.747,3.963c-7.795-7.912-20.774-17.631-39.377-20.744
			c-7.044-1.179-14.556-2.071-21.827-2.934c-14.404-1.71-29.297-3.477-39.314-7.384c-0.417-0.162-0.826-0.33-1.249-0.51
			l-0.939,2.181l0.826-2.23c-0.34-0.147-0.676-0.297-1.003-0.45l-0.165-0.076c-0.682-0.323-1.354-0.671-1.93-0.999l-0.203-0.117
			c-0.253-0.147-0.502-0.297-0.753-0.456l-0.094-0.058c-0.242-0.155-0.479-0.314-0.67-0.447l-0.183-0.134
			c-0.192-0.138-0.379-0.278-0.576-0.435l-0.124-0.098c-0.188-0.151-0.373-0.304-0.471-0.391l-0.123-0.111
			c-0.16-0.146-0.314-0.297-0.425-0.406l-0.139-0.147c-0.113-0.117-0.221-0.235-0.347-0.38l-0.077-0.085
			c-0.1-0.118-0.198-0.238-0.286-0.353l-0.093-0.13c-0.091-0.124-0.176-0.251-0.233-0.339l-0.097-0.154
			c-0.07-0.114-0.138-0.229-0.208-0.359l-0.065-0.116c-0.064-0.124-0.122-0.247-0.142-0.291l-0.082-0.196
			c-0.051-0.124-0.101-0.249-0.122-0.308l-0.073-0.207c-0.055-0.164-0.109-0.33-0.155-0.505c-1.295-4.979-5.614-8.541-10.749-8.864
			c-5.133-0.317-9.866,2.672-11.772,7.45l-39.697,99.445c-1.074,2.689-1.128,5.672-0.154,8.398c0.543,1.519,1.911,4.409,5.17,7.685
			l-6.474,16.284c-0.573,1.395-0.869,2.859-0.885,4.357l-1.115,2.584c-0.604,1.399-0.927,2.867-0.965,4.376
			c-1.6,2.645-2.098,5.801-1.405,8.8c-0.639,1.985-0.742,4.131-0.294,6.175l-0.065,0.144c-0.937,2.086-1.248,4.346-0.915,6.586
			l-0.45,0.787c-1.328,2.261-1.886,4.945-1.579,7.49L24.419,212.619z"/>
		<path style="fill:#E2E2E2;" d="M22.992,211.192c0.223,2.508,0.433,4.877,2.024,7.458c0.986,1.602,2.271,2.977,3.823,4.089
			l0.221,0.155c1.259,0.858,2.652,1.464,4.122,1.797l0.135,0.029c0.417,0.093,0.99,0.208,1.726,0.275
			c1.647,0.152,3.345-0.036,4.905-0.551c6.398-2.107,30.115-8.985,66.665-8.985c27.371,0,55.793,3.834,84.475,11.393
			c0.238,0.064,0.48,0.119,0.726,0.168c2.904,0.886,8.619,2.324,15.113,2.325c5.084,0,9.772-0.877,13.939-2.606
			c28.54-7.484,56.818-11.28,84.047-11.28c36.559,0,60.268,6.878,66.671,8.987l0.143,0.046c1.511,0.475,3.152,0.653,4.759,0.503
			c0.732-0.068,1.318-0.187,1.797-0.293c1.524-0.339,3.006-0.99,4.281-1.879l0.134-0.094c1.555-1.116,2.827-2.484,3.787-4.042
			c1.605-2.604,1.825-4.982,2.049-7.504l0.025-0.285c0.322-2.583-0.217-5.249-1.517-7.509l-0.489-0.852l-0.545-1.096
			c0.149-0.534,0.262-1.079,0.336-1.627c0.089-0.404,0.157-0.815,0.204-1.229c1.609-2.934,1.905-6.431,0.816-9.589
			c0.313-2.099,0.059-4.231-0.746-6.211l-6.582-16.198c1.221-1.233,2.157-2.719,2.745-4.376c0.574-1.617,0.809-3.327,0.697-5.086
			c-0.039-0.579-0.119-1.139-0.23-1.684c-0.136-0.67-0.304-1.303-0.527-1.931c-0.133-0.374-0.302-0.778-0.452-1.103
			c-0.085-0.186-0.17-0.369-0.258-0.542l-38.2-118.219c-1.083-3.35-3.575-6.03-6.837-7.353c-1.022-0.414-2.038-0.804-3.062-1.186
			l-1.268-0.463c-0.69-0.248-1.378-0.485-2.098-0.727l-0.363-0.122c-0.343-0.115-0.686-0.228-1.026-0.336l-0.611-0.191
			c-1.105-0.347-2.206-0.674-3.322-0.984l-0.351-0.1c-0.27-0.073-0.538-0.143-0.799-0.211l-0.481-0.125
			c-0.729-0.19-1.456-0.369-2.187-0.542l-0.722-0.167c-1.146-0.261-2.286-0.503-3.465-0.728l-0.389-0.069
			c-1.064-0.197-2.124-0.374-3.2-0.537l-0.53-0.08c-1.121-0.161-2.233-0.3-3.338-0.418l-0.688-0.07
			c-1.128-0.112-2.251-0.21-3.379-0.279l-0.141-0.008c-1.081-0.065-2.155-0.107-3.22-0.133l-0.643-0.015
			c-1.072-0.019-2.137-0.018-3.23,0.002l-0.593,0.016c-1.014,0.026-2.022,0.068-2.995,0.125l-0.314,0.017
			c-1.055,0.067-2.102,0.157-3.127,0.26l-0.71,0.072c-1.016,0.11-2.025,0.234-3.042,0.378l-0.525,0.08
			c-0.908,0.135-1.811,0.284-2.718,0.448l-0.529,0.094c-0.975,0.183-1.94,0.382-2.904,0.595l-0.723,0.165
			c-0.954,0.22-1.904,0.45-2.862,0.703l-0.395,0.108c-0.848,0.229-1.688,0.47-2.548,0.727l-0.665,0.201
			c-0.894,0.275-1.778,0.563-2.684,0.873l-0.706,0.246c-0.808,0.283-1.612,0.575-2.402,0.875l-0.446,0.17
			c-0.601,0.232-1.199,0.469-1.793,0.712c-0.163,0.066-0.321,0.136-0.478,0.208c-13.48,5.598-26.446,14.476-38.503,26.351
			l-0.205,0.197c-0.454,0.449-0.899,0.898-1.348,1.352l-0.729,0.742c-0.513,0.525-1.021,1.051-1.53,1.587l-0.861,0.918
			c-0.302,0.323-0.605,0.646-0.916,0.983l-0.794,0.873c-0.304,0.334-0.606,0.668-0.935,1.037l-4.056,4.711l-4.872,6.126
			c-0.963,1.264-1.881,2.501-2.778,3.742l-2.747,3.963c-7.795-7.912-20.774-17.632-39.376-20.744
			c-7.044-1.18-14.556-2.07-21.828-2.934c-14.403-1.709-29.297-3.478-39.314-7.384c-0.416-0.163-0.826-0.33-1.248-0.511
			l-0.939,2.182l0.827-2.231c-0.341-0.146-0.676-0.297-1.003-0.451l-0.165-0.076c-0.682-0.323-1.354-0.671-1.93-0.999l-0.203-0.118
			c-0.253-0.146-0.502-0.297-0.753-0.456l-0.094-0.059c-0.242-0.155-0.479-0.314-0.67-0.447l-0.184-0.134
			c-0.192-0.137-0.378-0.278-0.576-0.434l-0.124-0.099c-0.188-0.151-0.372-0.305-0.47-0.391l-0.123-0.111
			c-0.16-0.146-0.314-0.297-0.425-0.406l-0.139-0.147c-0.113-0.116-0.222-0.234-0.347-0.379l-0.076-0.085
			c-0.101-0.119-0.199-0.238-0.287-0.353l-0.093-0.131c-0.091-0.124-0.176-0.251-0.233-0.339l-0.097-0.155
			c-0.07-0.113-0.138-0.229-0.208-0.358l-0.065-0.116c-0.064-0.123-0.122-0.246-0.142-0.29l-0.081-0.197
			c-0.051-0.123-0.1-0.247-0.122-0.308l-0.073-0.207c-0.055-0.164-0.109-0.33-0.155-0.504c-1.295-4.979-5.614-8.541-10.749-8.863
			c-5.133-0.318-9.866,2.671-11.773,7.449l-39.697,99.444c-1.073,2.689-1.128,5.673-0.153,8.399
			c0.542,1.518,1.911,4.408,5.169,7.684l-6.474,16.284c-0.572,1.396-0.869,2.859-0.884,4.358l-1.115,2.584
			c-0.604,1.398-0.927,2.867-0.965,4.376c-1.6,2.645-2.098,5.802-1.405,8.8c-0.639,1.985-0.742,4.131-0.294,6.175l-0.065,0.144
			c-0.938,2.086-1.249,4.346-0.915,6.587l-0.45,0.787c-1.329,2.261-1.886,4.945-1.58,7.489L22.992,211.192z"/>
		<path style="fill:#D4D4D4;" d="M21.566,209.766c0.223,2.509,0.433,4.878,2.024,7.458c0.986,1.604,2.271,2.979,3.823,4.09
			l0.221,0.154c1.259,0.858,2.652,1.464,4.122,1.797l0.135,0.03c0.418,0.092,0.991,0.207,1.726,0.275
			c1.647,0.152,3.345-0.036,4.905-0.551c6.398-2.108,30.115-8.986,66.665-8.986c27.371,0,55.793,3.834,84.474,11.395
			c0.238,0.063,0.48,0.119,0.727,0.168c2.904,0.886,8.619,2.324,15.113,2.324c5.083,0,9.772-0.876,13.939-2.605
			c28.54-7.485,56.818-11.281,84.047-11.281c36.559,0,60.267,6.878,66.671,8.988l0.143,0.046c1.511,0.476,3.152,0.653,4.759,0.503
			c0.731-0.067,1.317-0.186,1.797-0.292c1.524-0.339,3.006-0.99,4.28-1.879l0.134-0.095c1.555-1.116,2.827-2.484,3.787-4.042
			c1.605-2.604,1.825-4.981,2.049-7.504l0.024-0.285c0.322-2.583-0.216-5.249-1.516-7.51l-0.489-0.85l-0.545-1.097
			c0.15-0.534,0.263-1.079,0.336-1.628c0.089-0.403,0.157-0.814,0.204-1.229c1.609-2.933,1.905-6.431,0.816-9.588
			c0.313-2.099,0.059-4.232-0.746-6.211l-6.582-16.199c1.221-1.232,2.156-2.718,2.745-4.376c0.574-1.616,0.809-3.326,0.697-5.086
			c-0.038-0.578-0.12-1.139-0.229-1.684c-0.136-0.67-0.304-1.303-0.528-1.932c-0.133-0.374-0.302-0.778-0.451-1.103
			c-0.085-0.186-0.17-0.368-0.258-0.542L342.385,32.223c-1.082-3.35-3.574-6.03-6.837-7.354c-1.022-0.415-2.038-0.804-3.063-1.186
			l-1.268-0.463c-0.69-0.247-1.378-0.485-2.098-0.726l-0.363-0.123c-0.343-0.113-0.686-0.227-1.026-0.335l-0.611-0.191
			c-1.105-0.347-2.206-0.674-3.322-0.984l-0.351-0.1c-0.27-0.073-0.538-0.143-0.799-0.211l-0.481-0.124
			c-0.729-0.19-1.456-0.37-2.186-0.542l-0.722-0.168c-1.146-0.261-2.286-0.504-3.465-0.727l-0.389-0.069
			c-1.065-0.198-2.124-0.375-3.2-0.537l-0.53-0.08c-1.121-0.162-2.233-0.301-3.339-0.419l-0.688-0.07
			c-1.128-0.112-2.251-0.209-3.379-0.279l-0.141-0.007c-1.081-0.065-2.155-0.107-3.22-0.133l-0.643-0.015
			c-1.072-0.02-2.136-0.019-3.23,0.003l-0.593,0.016c-1.014,0.026-2.022,0.066-2.995,0.125l-0.314,0.017
			c-1.055,0.067-2.102,0.157-3.127,0.26l-0.709,0.073c-1.016,0.109-2.025,0.233-3.042,0.378l-0.525,0.08
			c-0.908,0.135-1.811,0.284-2.719,0.447l-0.528,0.094c-0.975,0.182-1.941,0.382-2.904,0.596l-0.723,0.164
			c-0.955,0.221-1.904,0.45-2.862,0.704l-0.396,0.107c-0.848,0.229-1.688,0.47-2.548,0.728l-0.665,0.201
			c-0.894,0.275-1.778,0.563-2.684,0.872l-0.706,0.246c-0.808,0.283-1.612,0.576-2.402,0.876l-0.447,0.169
			c-0.601,0.232-1.199,0.47-1.792,0.713c-0.163,0.066-0.322,0.136-0.479,0.208c-13.479,5.598-26.446,14.477-38.503,26.352
			l-0.204,0.197c-0.455,0.448-0.9,0.898-1.348,1.353l-0.729,0.742c-0.513,0.525-1.021,1.051-1.531,1.587l-0.861,0.919
			c-0.302,0.323-0.605,0.646-0.916,0.983l-0.794,0.872c-0.303,0.335-0.605,0.668-0.935,1.037l-4.056,4.711l-4.872,6.125
			c-0.963,1.265-1.881,2.502-2.778,3.742l-2.748,3.963c-7.795-7.912-20.774-17.631-39.377-20.744
			c-7.043-1.179-14.556-2.07-21.827-2.934c-14.403-1.709-29.297-3.477-39.314-7.383c-0.417-0.164-0.826-0.331-1.248-0.512
			l-0.939,2.183l0.826-2.23c-0.341-0.147-0.676-0.298-1.003-0.451l-0.165-0.076c-0.682-0.322-1.354-0.67-1.93-0.999l-0.203-0.117
			c-0.253-0.146-0.502-0.296-0.753-0.455l-0.094-0.059c-0.242-0.154-0.479-0.313-0.67-0.448l-0.183-0.133
			c-0.192-0.137-0.378-0.279-0.576-0.435l-0.124-0.098c-0.188-0.151-0.373-0.305-0.47-0.392l-0.124-0.11
			c-0.16-0.146-0.314-0.297-0.425-0.407l-0.139-0.147c-0.113-0.116-0.221-0.235-0.346-0.379l-0.076-0.085
			c-0.101-0.118-0.199-0.238-0.287-0.353l-0.093-0.13c-0.091-0.124-0.177-0.251-0.233-0.339l-0.097-0.155
			c-0.07-0.113-0.138-0.229-0.207-0.359l-0.065-0.115c-0.063-0.124-0.122-0.247-0.142-0.291l-0.081-0.196
			c-0.051-0.124-0.101-0.249-0.122-0.308l-0.073-0.207c-0.055-0.164-0.109-0.33-0.155-0.504c-1.294-4.979-5.613-8.541-10.748-8.864
			c-5.133-0.317-9.866,2.672-11.773,7.449l-39.697,99.445c-1.073,2.689-1.128,5.672-0.153,8.399
			c0.543,1.519,1.911,4.409,5.169,7.684l-6.474,16.284c-0.572,1.395-0.869,2.859-0.885,4.358l-1.114,2.583
			c-0.604,1.398-0.928,2.867-0.965,4.376c-1.601,2.644-2.098,5.802-1.405,8.8c-0.639,1.985-0.741,4.13-0.294,6.175l-0.065,0.145
			c-0.938,2.085-1.249,4.345-0.915,6.585l-0.45,0.787c-1.329,2.26-1.887,4.945-1.58,7.49L21.566,209.766z"/>
		<path style="fill:#C5C5C5;" d="M20.14,208.34c0.223,2.509,0.433,4.878,2.024,7.458c0.987,1.603,2.271,2.979,3.823,4.09
			l0.221,0.154c1.258,0.858,2.652,1.464,4.122,1.797l0.135,0.031c0.417,0.092,0.99,0.207,1.726,0.275
			c1.648,0.152,3.344-0.037,4.905-0.552c6.399-2.108,30.115-8.986,66.665-8.986c27.371,0,55.794,3.835,84.474,11.395
			c0.238,0.063,0.48,0.118,0.727,0.167c2.904,0.885,8.619,2.324,15.114,2.325c5.083,0,9.771-0.877,13.938-2.605
			c28.541-7.485,56.819-11.282,84.047-11.282c36.559,0,60.267,6.878,66.67,8.989l0.144,0.046c1.511,0.475,3.152,0.653,4.759,0.503
			c0.732-0.068,1.318-0.187,1.797-0.293c1.524-0.339,3.007-0.99,4.281-1.879l0.134-0.095c1.556-1.115,2.827-2.483,3.787-4.041
			c1.604-2.604,1.826-4.982,2.049-7.505l0.024-0.284c0.322-2.583-0.216-5.25-1.517-7.51l-0.489-0.851l-0.545-1.097
			c0.15-0.534,0.263-1.079,0.336-1.626c0.089-0.404,0.157-0.815,0.204-1.229c1.609-2.933,1.905-6.431,0.816-9.588
			c0.313-2.099,0.059-4.232-0.746-6.211l-6.582-16.198c1.221-1.232,2.156-2.718,2.745-4.376c0.574-1.617,0.809-3.326,0.696-5.086
			c-0.038-0.578-0.119-1.139-0.229-1.684c-0.135-0.669-0.303-1.302-0.527-1.932c-0.133-0.373-0.302-0.777-0.452-1.103
			c-0.085-0.186-0.171-0.367-0.258-0.542L340.958,30.797c-1.082-3.351-3.575-6.03-6.837-7.354c-1.022-0.415-2.037-0.805-3.062-1.186
			l-1.267-0.464c-0.69-0.247-1.378-0.484-2.098-0.726l-0.364-0.122c-0.343-0.114-0.685-0.227-1.025-0.335l-0.612-0.191
			c-1.105-0.347-2.206-0.675-3.322-0.984l-0.351-0.1c-0.271-0.074-0.538-0.144-0.799-0.212l-0.482-0.124
			c-0.729-0.19-1.456-0.37-2.186-0.543l-0.721-0.168c-1.146-0.26-2.287-0.503-3.465-0.727l-0.389-0.069
			c-1.065-0.198-2.124-0.375-3.2-0.537l-0.53-0.08c-1.121-0.162-2.233-0.301-3.338-0.419l-0.688-0.07
			c-1.128-0.112-2.251-0.209-3.379-0.279l-0.141-0.007c-1.081-0.065-2.155-0.107-3.22-0.134l-0.643-0.015
			c-1.072-0.02-2.136-0.019-3.229,0.003l-0.594,0.015c-1.014,0.027-2.022,0.067-2.995,0.126l-0.314,0.017
			c-1.055,0.067-2.102,0.156-3.127,0.26l-0.709,0.072c-1.016,0.109-2.025,0.233-3.043,0.378l-0.525,0.081
			c-0.908,0.135-1.811,0.284-2.718,0.447l-0.529,0.094c-0.975,0.182-1.941,0.383-2.904,0.596l-0.723,0.163
			c-0.955,0.22-1.905,0.45-2.863,0.703l-0.395,0.109c-0.848,0.229-1.688,0.47-2.548,0.727l-0.665,0.201
			c-0.893,0.275-1.778,0.563-2.683,0.873l-0.706,0.246c-0.808,0.284-1.612,0.576-2.402,0.876l-0.447,0.169
			c-0.601,0.232-1.199,0.469-1.793,0.712c-0.162,0.066-0.321,0.135-0.478,0.208c-13.479,5.598-26.446,14.475-38.503,26.35
			l-0.205,0.198c-0.454,0.448-0.899,0.897-1.348,1.353l-0.729,0.741c-0.513,0.525-1.021,1.051-1.531,1.587l-0.86,0.92
			c-0.303,0.322-0.605,0.646-0.917,0.983l-0.793,0.872c-0.304,0.334-0.606,0.668-0.935,1.037l-4.057,4.71l-4.873,6.125
			c-0.962,1.265-1.88,2.502-2.777,3.742l-2.748,3.963c-7.795-7.912-20.774-17.63-39.377-20.744
			c-7.043-1.179-14.556-2.071-21.827-2.934c-14.404-1.71-29.297-3.477-39.314-7.384c-0.417-0.163-0.826-0.33-1.249-0.511
			l-0.939,2.182l0.826-2.23c-0.34-0.146-0.676-0.298-1.003-0.45l-0.165-0.076c-0.682-0.323-1.354-0.671-1.93-1l-0.203-0.118
			c-0.253-0.146-0.502-0.296-0.753-0.454l-0.095-0.06c-0.241-0.155-0.479-0.313-0.67-0.447L95.29,41.25
			c-0.191-0.137-0.378-0.279-0.575-0.435l-0.124-0.099c-0.188-0.151-0.373-0.304-0.47-0.391l-0.124-0.111
			c-0.16-0.145-0.314-0.296-0.425-0.406l-0.139-0.146c-0.113-0.117-0.221-0.236-0.347-0.38l-0.076-0.085
			c-0.101-0.119-0.199-0.238-0.286-0.353l-0.094-0.13c-0.091-0.124-0.176-0.251-0.233-0.34L92.3,38.22
			c-0.07-0.113-0.138-0.229-0.208-0.358l-0.065-0.117c-0.064-0.123-0.122-0.247-0.142-0.29l-0.081-0.197
			c-0.051-0.124-0.101-0.248-0.123-0.307l-0.073-0.207c-0.055-0.164-0.109-0.33-0.155-0.505c-1.294-4.979-5.614-8.541-10.749-8.863
			c-5.133-0.318-9.866,2.672-11.773,7.449L29.235,134.27c-1.074,2.689-1.128,5.672-0.154,8.398c0.543,1.519,1.911,4.409,5.17,7.685
			l-6.474,16.283c-0.573,1.396-0.869,2.86-0.884,4.359l-1.115,2.584c-0.603,1.398-0.927,2.867-0.965,4.376
			c-1.601,2.644-2.099,5.802-1.405,8.8c-0.639,1.985-0.741,4.131-0.294,6.175l-0.065,0.144c-0.938,2.085-1.249,4.345-0.915,6.586
			l-0.449,0.787c-1.329,2.26-1.887,4.945-1.58,7.49L20.14,208.34z"/>
		<path style="fill:#B7B7B7;" d="M18.714,206.914c0.223,2.509,0.433,4.877,2.024,7.458c0.986,1.602,2.272,2.977,3.823,4.089
			l0.221,0.154c1.259,0.858,2.652,1.465,4.122,1.797l0.135,0.03c0.417,0.093,0.99,0.208,1.726,0.276
			c1.647,0.153,3.344-0.037,4.905-0.551c6.398-2.108,30.115-8.985,66.664-8.985c27.371,0,55.794,3.833,84.475,11.394
			c0.238,0.063,0.48,0.12,0.726,0.168c2.904,0.886,8.619,2.324,15.113,2.324c5.084,0,9.772-0.875,13.938-2.604
			c28.54-7.486,56.819-11.281,84.047-11.281c36.559,0,60.267,6.877,66.671,8.987l0.144,0.046c1.511,0.475,3.151,0.653,4.759,0.503
			c0.732-0.068,1.318-0.188,1.797-0.293c1.524-0.338,3.006-0.99,4.281-1.878l0.134-0.095c1.556-1.115,2.827-2.483,3.787-4.042
			c1.605-2.604,1.826-4.982,2.049-7.504l0.025-0.285c0.322-2.583-0.217-5.249-1.517-7.509l-0.489-0.851l-0.545-1.097
			c0.149-0.534,0.262-1.078,0.336-1.627c0.089-0.403,0.157-0.814,0.204-1.229c1.609-2.934,1.905-6.431,0.816-9.588
			c0.313-2.099,0.058-4.232-0.746-6.211l-6.582-16.198c1.221-1.232,2.157-2.719,2.745-4.376c0.575-1.617,0.809-3.327,0.697-5.086
			c-0.039-0.578-0.119-1.139-0.229-1.685c-0.136-0.669-0.303-1.302-0.527-1.931c-0.133-0.374-0.303-0.778-0.451-1.103
			c-0.086-0.187-0.171-0.368-0.258-0.543l-38.2-118.218c-1.083-3.35-3.575-6.03-6.837-7.354c-1.022-0.414-2.038-0.805-3.062-1.186
			l-1.268-0.463c-0.69-0.248-1.378-0.485-2.097-0.727l-0.364-0.123c-0.343-0.114-0.685-0.227-1.025-0.335l-0.612-0.191
			c-1.105-0.347-2.206-0.674-3.322-0.984l-0.351-0.1c-0.27-0.074-0.538-0.144-0.799-0.211l-0.482-0.125
			c-0.729-0.189-1.456-0.37-2.186-0.542l-0.721-0.168c-1.147-0.261-2.287-0.503-3.466-0.728l-0.389-0.069
			c-1.064-0.198-2.124-0.375-3.2-0.537l-0.53-0.081c-1.121-0.162-2.233-0.3-3.338-0.418l-0.688-0.07
			c-1.128-0.112-2.251-0.21-3.379-0.279l-0.141-0.008c-1.082-0.064-2.155-0.106-3.22-0.133l-0.643-0.015
			c-1.072-0.019-2.137-0.019-3.23,0.002l-0.593,0.016c-1.014,0.026-2.022,0.067-2.995,0.125l-0.314,0.017
			c-1.055,0.067-2.102,0.157-3.127,0.259l-0.71,0.073c-1.016,0.11-2.025,0.233-3.042,0.378l-0.525,0.08
			c-0.908,0.136-1.811,0.284-2.718,0.447l-0.529,0.095c-0.975,0.182-1.941,0.382-2.904,0.595l-0.723,0.164
			c-0.955,0.22-1.905,0.45-2.863,0.704l-0.395,0.108c-0.848,0.229-1.689,0.47-2.548,0.727l-0.665,0.201
			c-0.893,0.276-1.778,0.564-2.684,0.873l-0.706,0.246c-0.808,0.284-1.612,0.575-2.402,0.876l-0.446,0.17
			c-0.601,0.232-1.199,0.469-1.793,0.712c-0.162,0.066-0.321,0.136-0.478,0.208c-13.48,5.598-26.446,14.476-38.504,26.351
			l-0.205,0.197c-0.454,0.449-0.899,0.899-1.348,1.353l-0.729,0.742c-0.513,0.524-1.021,1.051-1.531,1.587l-0.861,0.919
			c-0.302,0.323-0.604,0.646-0.916,0.983l-0.794,0.873c-0.303,0.335-0.606,0.668-0.935,1.038l-4.056,4.71l-4.872,6.126
			c-0.962,1.264-1.88,2.502-2.777,3.741l-2.748,3.963c-7.795-7.912-20.774-17.631-39.376-20.744
			c-7.044-1.178-14.556-2.071-21.827-2.934c-14.404-1.71-29.297-3.477-39.315-7.384c-0.417-0.163-0.825-0.33-1.248-0.51
			l-0.939,2.181l0.826-2.23c-0.34-0.146-0.676-0.297-1.003-0.451l-0.164-0.076c-0.682-0.323-1.354-0.671-1.93-1l-0.203-0.117
			c-0.253-0.146-0.502-0.296-0.753-0.455l-0.094-0.059c-0.242-0.155-0.479-0.313-0.67-0.447l-0.184-0.134
			c-0.192-0.138-0.378-0.279-0.576-0.435l-0.124-0.098c-0.188-0.151-0.373-0.305-0.47-0.391l-0.123-0.111
			c-0.16-0.146-0.314-0.296-0.425-0.406l-0.139-0.148c-0.113-0.116-0.222-0.235-0.347-0.379l-0.076-0.085
			c-0.101-0.119-0.199-0.238-0.287-0.353l-0.093-0.131c-0.091-0.124-0.176-0.251-0.233-0.339l-0.097-0.155
			c-0.07-0.114-0.138-0.23-0.208-0.359l-0.065-0.116c-0.064-0.123-0.122-0.247-0.142-0.29l-0.081-0.197
			c-0.051-0.123-0.1-0.248-0.122-0.308l-0.073-0.206c-0.055-0.164-0.109-0.331-0.155-0.506c-1.294-4.979-5.614-8.54-10.749-8.863
			c-5.133-0.317-9.866,2.673-11.773,7.45l-39.697,99.446c-1.073,2.689-1.128,5.671-0.153,8.398c0.543,1.519,1.911,4.408,5.17,7.684
			l-6.474,16.284c-0.572,1.395-0.869,2.859-0.884,4.358l-1.115,2.583c-0.604,1.4-0.927,2.868-0.965,4.376
			c-1.6,2.645-2.098,5.802-1.405,8.801c-0.639,1.984-0.741,4.13-0.294,6.175l-0.065,0.144c-0.938,2.086-1.248,4.346-0.915,6.586
			l-0.45,0.786c-1.329,2.261-1.886,4.946-1.58,7.49L18.714,206.914z"/>
		<path style="fill:#A8A8A8;" d="M17.288,205.488c0.223,2.508,0.433,4.877,2.024,7.457c0.986,1.603,2.271,2.979,3.823,4.089
			l0.221,0.155c1.259,0.858,2.652,1.464,4.122,1.797l0.135,0.03c0.417,0.093,0.991,0.208,1.726,0.275
			c1.647,0.152,3.345-0.036,4.905-0.551c6.398-2.108,30.115-8.986,66.664-8.986c27.371,0,55.794,3.834,84.475,11.395
			c0.238,0.063,0.481,0.118,0.727,0.167c2.904,0.887,8.618,2.325,15.113,2.325c5.083,0,9.772-0.877,13.938-2.605
			c28.54-7.485,56.819-11.281,84.047-11.281c36.559,0,60.267,6.878,66.67,8.988l0.144,0.046c1.51,0.475,3.151,0.653,4.758,0.504
			c0.733-0.069,1.318-0.188,1.797-0.294c1.524-0.338,3.006-0.99,4.281-1.878l0.134-0.095c1.556-1.116,2.827-2.484,3.788-4.041
			c1.605-2.605,1.825-4.982,2.048-7.505l0.025-0.285c0.322-2.582-0.217-5.249-1.517-7.509l-0.489-0.85l-0.546-1.097
			c0.15-0.534,0.263-1.079,0.337-1.627c0.089-0.403,0.157-0.814,0.204-1.229c1.609-2.933,1.905-6.431,0.815-9.588
			c0.313-2.1,0.059-4.232-0.745-6.211l-6.582-16.198c1.221-1.233,2.157-2.719,2.745-4.376c0.574-1.617,0.809-3.327,0.697-5.086
			c-0.038-0.579-0.119-1.139-0.229-1.684c-0.136-0.671-0.303-1.303-0.528-1.932c-0.133-0.373-0.302-0.778-0.451-1.102
			c-0.085-0.187-0.17-0.368-0.257-0.543L338.106,27.944c-1.083-3.35-3.575-6.03-6.837-7.353c-1.022-0.415-2.039-0.804-3.063-1.185
			l-1.268-0.463c-0.689-0.248-1.378-0.485-2.097-0.726l-0.364-0.123c-0.343-0.114-0.685-0.227-1.025-0.336l-0.611-0.191
			c-1.105-0.347-2.205-0.675-3.321-0.984l-0.352-0.1c-0.27-0.074-0.538-0.144-0.799-0.211l-0.482-0.125
			c-0.729-0.19-1.456-0.37-2.186-0.543l-0.722-0.168c-1.146-0.26-2.287-0.502-3.466-0.727l-0.388-0.069
			c-1.065-0.198-2.124-0.374-3.2-0.537l-0.53-0.08c-1.121-0.162-2.233-0.3-3.338-0.419l-0.688-0.07
			c-1.127-0.112-2.251-0.209-3.379-0.279l-0.141-0.008c-1.082-0.065-2.155-0.107-3.22-0.132l-0.644-0.015
			c-1.072-0.019-2.137-0.019-3.23,0.002l-0.593,0.016c-1.014,0.026-2.021,0.068-2.995,0.125l-0.313,0.017
			c-1.056,0.067-2.103,0.157-3.128,0.26l-0.709,0.072c-1.016,0.109-2.025,0.234-3.042,0.378l-0.525,0.08
			c-0.908,0.136-1.812,0.284-2.719,0.448l-0.528,0.094c-0.975,0.182-1.941,0.382-2.904,0.595l-0.723,0.164
			c-0.955,0.22-1.905,0.45-2.863,0.703l-0.395,0.109c-0.848,0.228-1.689,0.47-2.549,0.727l-0.665,0.2
			c-0.893,0.276-1.778,0.564-2.684,0.873l-0.706,0.246c-0.808,0.283-1.612,0.575-2.402,0.876l-0.447,0.17
			c-0.6,0.231-1.198,0.468-1.792,0.711c-0.163,0.067-0.322,0.136-0.479,0.209c-13.479,5.598-26.445,14.475-38.503,26.35
			l-0.204,0.197c-0.455,0.449-0.9,0.899-1.348,1.353l-0.729,0.742c-0.513,0.525-1.021,1.05-1.531,1.587l-0.861,0.918
			c-0.302,0.323-0.605,0.646-0.915,0.983l-0.794,0.873c-0.304,0.334-0.606,0.668-0.936,1.036l-4.056,4.711l-4.872,6.125
			c-0.962,1.264-1.88,2.502-2.778,3.742l-2.748,3.963c-7.795-7.911-20.774-17.631-39.376-20.744
			c-7.044-1.179-14.557-2.07-21.828-2.934c-14.403-1.709-29.297-3.477-39.315-7.384c-0.417-0.162-0.826-0.33-1.247-0.51l-0.94,2.181
			l0.826-2.23c-0.34-0.146-0.676-0.297-1.002-0.45l-0.165-0.076c-0.682-0.323-1.354-0.671-1.93-0.999l-0.204-0.117
			c-0.253-0.146-0.501-0.296-0.753-0.456l-0.094-0.058c-0.242-0.156-0.479-0.314-0.67-0.447l-0.183-0.135
			c-0.192-0.137-0.379-0.278-0.576-0.434l-0.124-0.098c-0.188-0.152-0.373-0.305-0.471-0.392l-0.123-0.11
			c-0.16-0.146-0.314-0.297-0.425-0.406l-0.14-0.147c-0.112-0.117-0.221-0.235-0.346-0.38l-0.076-0.084
			c-0.101-0.12-0.199-0.239-0.287-0.353l-0.093-0.131c-0.091-0.125-0.177-0.251-0.234-0.339l-0.097-0.155
			c-0.07-0.114-0.138-0.229-0.207-0.358l-0.065-0.116c-0.064-0.124-0.122-0.247-0.142-0.291l-0.081-0.197
			c-0.051-0.123-0.1-0.248-0.122-0.308l-0.073-0.207c-0.055-0.164-0.109-0.33-0.155-0.505c-1.295-4.979-5.614-8.54-10.749-8.863
			c-5.133-0.317-9.866,2.672-11.773,7.449l-39.698,99.445c-1.073,2.689-1.128,5.672-0.153,8.399
			c0.542,1.518,1.912,4.408,5.169,7.684l-6.474,16.283c-0.573,1.396-0.869,2.859-0.885,4.359l-1.115,2.584
			c-0.604,1.399-0.927,2.867-0.965,4.376c-1.601,2.645-2.098,5.802-1.405,8.8c-0.639,1.985-0.742,4.131-0.294,6.175l-0.065,0.144
			c-0.938,2.086-1.249,4.346-0.915,6.586l-0.45,0.787c-1.329,2.26-1.887,4.945-1.58,7.489L17.288,205.488z"/>
		<path style="fill:#9A9A9A;" d="M15.862,204.061c0.223,2.509,0.433,4.878,2.024,7.458c0.986,1.603,2.271,2.978,3.823,4.089
			l0.221,0.155c1.258,0.857,2.652,1.464,4.122,1.797l0.135,0.03c0.417,0.092,0.99,0.208,1.726,0.276
			c1.647,0.152,3.345-0.037,4.905-0.552c6.399-2.108,30.115-8.985,66.665-8.985c27.371,0,55.793,3.834,84.474,11.394
			c0.238,0.063,0.481,0.119,0.727,0.168c2.904,0.885,8.619,2.324,15.113,2.324c5.083,0,9.772-0.876,13.938-2.604
			c28.541-7.486,56.819-11.281,84.047-11.281c36.559,0,60.267,6.877,66.671,8.987l0.143,0.047c1.511,0.475,3.152,0.653,4.759,0.503
			c0.732-0.068,1.318-0.186,1.797-0.292c1.524-0.338,3.006-0.99,4.28-1.878l0.134-0.096c1.555-1.115,2.827-2.483,3.787-4.041
			c1.605-2.604,1.825-4.982,2.049-7.504l0.024-0.285c0.322-2.583-0.217-5.249-1.517-7.51l-0.489-0.851l-0.545-1.096
			c0.15-0.534,0.263-1.079,0.337-1.627c0.089-0.404,0.157-0.814,0.204-1.229c1.609-2.933,1.905-6.431,0.816-9.588
			c0.313-2.099,0.059-4.231-0.746-6.21l-6.582-16.198c1.221-1.233,2.156-2.719,2.745-4.377c0.574-1.617,0.809-3.327,0.697-5.086
			c-0.039-0.579-0.12-1.139-0.23-1.685c-0.135-0.67-0.303-1.302-0.527-1.932c-0.133-0.373-0.302-0.778-0.451-1.103
			c-0.085-0.186-0.171-0.368-0.258-0.542L336.68,26.518c-1.082-3.35-3.575-6.03-6.837-7.353c-1.021-0.414-2.038-0.804-3.062-1.185
			l-1.267-0.463c-0.69-0.248-1.379-0.485-2.098-0.727l-0.364-0.122c-0.343-0.114-0.685-0.227-1.025-0.336l-0.611-0.191
			c-1.105-0.347-2.206-0.674-3.322-0.984l-0.351-0.1c-0.27-0.074-0.538-0.144-0.799-0.212l-0.481-0.125
			c-0.729-0.189-1.456-0.37-2.187-0.542l-0.721-0.168c-1.146-0.261-2.287-0.503-3.465-0.727l-0.389-0.07
			c-1.065-0.197-2.124-0.375-3.2-0.536l-0.53-0.081c-1.121-0.162-2.233-0.3-3.338-0.418l-0.688-0.07
			c-1.128-0.112-2.251-0.209-3.379-0.279l-0.141-0.007c-1.081-0.065-2.155-0.107-3.22-0.133l-0.643-0.015
			c-1.072-0.019-2.137-0.019-3.23,0.002l-0.593,0.016c-1.014,0.026-2.021,0.067-2.995,0.125l-0.314,0.017
			c-1.055,0.067-2.102,0.156-3.127,0.26l-0.709,0.072c-1.016,0.109-2.025,0.233-3.043,0.378l-0.526,0.08
			c-0.908,0.136-1.811,0.284-2.718,0.448l-0.529,0.094c-0.975,0.182-1.94,0.382-2.904,0.596l-0.723,0.164
			c-0.955,0.22-1.905,0.45-2.862,0.703l-0.396,0.109c-0.848,0.228-1.688,0.47-2.548,0.727l-0.664,0.2
			c-0.894,0.277-1.779,0.564-2.684,0.874l-0.706,0.246c-0.808,0.284-1.612,0.575-2.402,0.877l-0.447,0.169
			c-0.601,0.232-1.199,0.469-1.793,0.712c-0.162,0.067-0.321,0.136-0.478,0.208c-13.479,5.597-26.446,14.476-38.503,26.351
			l-0.205,0.196c-0.454,0.449-0.899,0.898-1.348,1.353l-0.729,0.742c-0.513,0.525-1.021,1.051-1.531,1.587l-0.861,0.919
			c-0.302,0.323-0.605,0.646-0.916,0.983l-0.794,0.873c-0.303,0.334-0.606,0.668-0.935,1.037l-4.056,4.711l-4.873,6.125
			c-0.962,1.264-1.88,2.501-2.777,3.741l-2.748,3.963c-7.795-7.912-20.774-17.631-39.376-20.745
			c-7.044-1.178-14.557-2.069-21.828-2.933c-14.403-1.71-29.297-3.478-39.314-7.384c-0.417-0.163-0.826-0.33-1.249-0.51l-0.939,2.18
			l0.826-2.229c-0.34-0.146-0.676-0.298-1.002-0.451l-0.165-0.076c-0.683-0.323-1.354-0.671-1.931-1l-0.203-0.117
			c-0.253-0.148-0.502-0.297-0.753-0.456l-0.094-0.059c-0.242-0.154-0.479-0.313-0.67-0.447l-0.183-0.134
			c-0.192-0.138-0.378-0.279-0.576-0.435l-0.124-0.099c-0.188-0.151-0.373-0.304-0.47-0.391l-0.124-0.111
			c-0.16-0.145-0.314-0.296-0.425-0.406l-0.139-0.147c-0.113-0.116-0.221-0.235-0.347-0.379l-0.076-0.085
			c-0.101-0.118-0.199-0.239-0.286-0.353l-0.094-0.13c-0.091-0.125-0.176-0.251-0.233-0.339l-0.097-0.154
			c-0.07-0.114-0.138-0.23-0.208-0.359l-0.064-0.116c-0.064-0.124-0.122-0.246-0.142-0.29l-0.082-0.196
			c-0.051-0.123-0.1-0.249-0.122-0.308l-0.074-0.207c-0.055-0.165-0.109-0.331-0.155-0.505c-1.295-4.979-5.614-8.541-10.749-8.863
			c-5.133-0.318-9.866,2.672-11.773,7.449l-39.697,99.445c-1.074,2.689-1.128,5.672-0.154,8.399
			c0.543,1.519,1.911,4.408,5.169,7.685l-6.474,16.283c-0.572,1.396-0.869,2.859-0.885,4.358l-1.115,2.584
			c-0.604,1.398-0.927,2.868-0.965,4.376c-1.601,2.645-2.098,5.802-1.405,8.801c-0.639,1.985-0.741,4.131-0.294,6.175l-0.065,0.144
			c-0.938,2.087-1.249,4.346-0.916,6.587l-0.449,0.787c-1.329,2.26-1.887,4.945-1.579,7.489L15.862,204.061z"/>
		<path style="fill:#8B8B8B;" d="M14.436,202.635c0.223,2.509,0.432,4.878,2.024,7.458c0.986,1.604,2.271,2.978,3.822,4.09
			l0.222,0.154c1.258,0.858,2.651,1.464,4.121,1.797l0.136,0.03c0.417,0.092,0.99,0.208,1.726,0.276
			c1.648,0.152,3.345-0.037,4.905-0.551c6.399-2.108,30.115-8.986,66.665-8.986c27.372,0,55.794,3.834,84.475,11.395
			c0.238,0.063,0.48,0.119,0.727,0.167c2.905,0.886,8.619,2.324,15.113,2.324c5.083,0,9.772-0.876,13.938-2.605
			c28.54-7.485,56.818-11.282,84.047-11.282c36.558,0,60.267,6.878,66.67,8.988l0.143,0.046c1.511,0.475,3.152,0.652,4.759,0.503
			c0.732-0.068,1.317-0.187,1.797-0.293c1.524-0.338,3.006-0.99,4.281-1.879l0.133-0.095c1.556-1.115,2.827-2.484,3.787-4.042
			c1.605-2.604,1.825-4.982,2.05-7.505l0.024-0.285c0.322-2.583-0.217-5.25-1.516-7.51l-0.49-0.851l-0.544-1.097
			c0.149-0.533,0.262-1.078,0.336-1.627c0.089-0.404,0.157-0.814,0.204-1.229c1.609-2.933,1.905-6.43,0.815-9.588
			c0.313-2.098,0.059-4.231-0.745-6.21l-6.581-16.198c1.221-1.232,2.156-2.719,2.746-4.376c0.574-1.618,0.808-3.327,0.696-5.087
			c-0.039-0.578-0.12-1.138-0.23-1.684c-0.135-0.669-0.303-1.302-0.527-1.931c-0.133-0.373-0.302-0.778-0.451-1.103
			c-0.086-0.186-0.171-0.367-0.258-0.542l-38.2-118.219c-1.082-3.35-3.575-6.03-6.837-7.353c-1.022-0.415-2.037-0.805-3.062-1.186
			l-1.268-0.464c-0.69-0.246-1.379-0.484-2.098-0.726l-0.364-0.122c-0.342-0.115-0.685-0.227-1.025-0.335l-0.611-0.191
			c-1.105-0.347-2.206-0.674-3.322-0.985l-0.352-0.1c-0.27-0.073-0.538-0.144-0.799-0.211l-0.482-0.125
			c-0.729-0.19-1.456-0.37-2.187-0.542l-0.721-0.168c-1.147-0.26-2.287-0.502-3.466-0.726l-0.389-0.07
			c-1.064-0.198-2.124-0.375-3.2-0.537l-0.53-0.08c-1.121-0.163-2.233-0.3-3.339-0.419l-0.688-0.071
			c-1.128-0.111-2.251-0.209-3.379-0.279l-0.141-0.007c-1.081-0.064-2.155-0.106-3.22-0.133l-0.643-0.015
			c-1.071-0.021-2.137-0.019-3.23,0.002l-0.593,0.016c-1.014,0.025-2.022,0.067-2.995,0.125l-0.314,0.017
			c-1.055,0.067-2.102,0.157-3.126,0.26l-0.71,0.073c-1.016,0.109-2.025,0.233-3.042,0.378l-0.526,0.08
			c-0.907,0.136-1.811,0.284-2.718,0.447l-0.529,0.095c-0.974,0.182-1.941,0.382-2.904,0.596l-0.723,0.163
			c-0.955,0.22-1.905,0.45-2.862,0.703l-0.395,0.108c-0.848,0.229-1.689,0.471-2.548,0.727l-0.665,0.201
			c-0.894,0.276-1.779,0.564-2.683,0.873l-0.706,0.246c-0.808,0.284-1.613,0.575-2.403,0.877l-0.446,0.169
			c-0.601,0.232-1.2,0.469-1.793,0.712c-0.162,0.066-0.321,0.136-0.479,0.208c-13.479,5.598-26.446,14.476-38.503,26.35
			l-0.205,0.197c-0.454,0.449-0.899,0.898-1.348,1.353l-0.729,0.742c-0.513,0.524-1.021,1.05-1.531,1.587l-0.861,0.919
			c-0.303,0.323-0.605,0.646-0.916,0.983l-0.794,0.872c-0.303,0.334-0.605,0.668-0.935,1.037l-4.056,4.711l-4.873,6.125
			c-0.963,1.265-1.88,2.502-2.777,3.742l-2.748,3.963c-7.795-7.912-20.774-17.631-39.377-20.744
			c-7.044-1.179-14.556-2.07-21.827-2.934c-14.404-1.709-29.298-3.478-39.315-7.384c-0.417-0.162-0.825-0.329-1.249-0.51
			l-0.939,2.181l0.826-2.231c-0.34-0.146-0.675-0.297-1.003-0.45l-0.164-0.076c-0.683-0.323-1.354-0.67-1.931-0.999l-0.203-0.118
			c-0.253-0.146-0.502-0.296-0.753-0.455l-0.094-0.059c-0.242-0.155-0.479-0.314-0.67-0.447l-0.183-0.134
			c-0.192-0.137-0.378-0.278-0.576-0.434l-0.124-0.099c-0.188-0.151-0.373-0.304-0.47-0.391l-0.123-0.111
			c-0.16-0.145-0.314-0.296-0.425-0.406l-0.139-0.147c-0.113-0.116-0.221-0.235-0.346-0.379l-0.076-0.085
			c-0.101-0.119-0.199-0.238-0.287-0.353l-0.094-0.13c-0.091-0.125-0.176-0.252-0.233-0.339l-0.097-0.155
			c-0.07-0.113-0.138-0.229-0.208-0.359l-0.065-0.116c-0.064-0.124-0.121-0.247-0.142-0.291l-0.082-0.196
			c-0.051-0.123-0.1-0.248-0.122-0.307l-0.074-0.207c-0.055-0.164-0.109-0.33-0.155-0.505c-1.294-4.979-5.614-8.54-10.748-8.863
			c-5.133-0.318-9.866,2.671-11.773,7.449L23.53,128.565c-1.073,2.689-1.128,5.673-0.154,8.399c0.543,1.519,1.911,4.408,5.17,7.685
			l-6.474,16.283c-0.572,1.395-0.869,2.859-0.884,4.358l-1.115,2.584c-0.603,1.398-0.927,2.867-0.965,4.376
			c-1.6,2.644-2.098,5.802-1.405,8.801c-0.638,1.985-0.741,4.13-0.294,6.175l-0.064,0.144c-0.938,2.086-1.249,4.346-0.915,6.586
			l-0.45,0.787c-1.328,2.261-1.886,4.945-1.579,7.49L14.436,202.635z"/>
		<path style="fill:#7D7D7D;" d="M13.01,201.209c0.223,2.509,0.433,4.878,2.024,7.458c0.986,1.604,2.271,2.979,3.822,4.09
			l0.222,0.155c1.258,0.858,2.652,1.465,4.121,1.797l0.135,0.03c0.417,0.092,0.99,0.207,1.726,0.275
			c1.647,0.152,3.344-0.037,4.905-0.552c6.398-2.107,30.115-8.985,66.664-8.985c27.371,0,55.793,3.834,84.475,11.395
			c0.238,0.064,0.48,0.118,0.726,0.167c2.904,0.886,8.618,2.324,15.113,2.325c5.083,0,9.771-0.876,13.938-2.605
			c28.541-7.485,56.819-11.281,84.047-11.281c36.559,0,60.267,6.878,66.67,8.988l0.143,0.046c1.511,0.475,3.152,0.652,4.759,0.503
			c0.732-0.068,1.318-0.187,1.797-0.293c1.524-0.338,3.006-0.989,4.281-1.878l0.134-0.095c1.556-1.116,2.827-2.484,3.787-4.043
			c1.605-2.604,1.825-4.98,2.049-7.503l0.024-0.286c0.322-2.584-0.216-5.249-1.516-7.509l-0.489-0.851l-0.545-1.097
			c0.15-0.535,0.263-1.079,0.336-1.628c0.089-0.404,0.157-0.814,0.204-1.228c1.609-2.934,1.905-6.431,0.816-9.588
			c0.313-2.099,0.059-4.232-0.745-6.211l-6.582-16.198c1.221-1.232,2.157-2.719,2.745-4.376c0.574-1.617,0.809-3.326,0.697-5.086
			c-0.039-0.578-0.119-1.139-0.229-1.684c-0.135-0.669-0.303-1.302-0.527-1.931c-0.133-0.374-0.303-0.778-0.452-1.103
			c-0.085-0.186-0.17-0.368-0.258-0.542l-38.2-118.219c-1.082-3.35-3.575-6.03-6.837-7.354c-1.022-0.415-2.038-0.805-3.062-1.186
			l-1.268-0.464c-0.69-0.247-1.379-0.484-2.098-0.727l-0.364-0.122c-0.343-0.114-0.685-0.226-1.026-0.335l-0.611-0.191
			c-1.105-0.347-2.206-0.675-3.322-0.984l-0.351-0.1c-0.27-0.074-0.538-0.144-0.799-0.212l-0.481-0.125
			c-0.729-0.189-1.456-0.369-2.187-0.542l-0.721-0.168c-1.146-0.26-2.287-0.503-3.466-0.726l-0.389-0.069
			c-1.064-0.197-2.123-0.375-3.2-0.537l-0.53-0.08c-1.121-0.162-2.233-0.3-3.338-0.419l-0.688-0.069
			c-1.127-0.113-2.251-0.21-3.379-0.28l-0.141-0.008c-1.082-0.064-2.155-0.106-3.22-0.133l-0.643-0.015
			c-1.072-0.019-2.137-0.019-3.23,0.003l-0.593,0.015c-1.014,0.027-2.022,0.067-2.995,0.125l-0.314,0.017
			c-1.055,0.067-2.102,0.156-3.127,0.259l-0.71,0.073c-1.016,0.11-2.025,0.233-3.043,0.377l-0.525,0.081
			c-0.908,0.135-1.811,0.283-2.718,0.447l-0.529,0.095c-0.975,0.182-1.941,0.381-2.904,0.594l-0.723,0.165
			c-0.955,0.22-1.905,0.45-2.863,0.703l-0.395,0.108c-0.848,0.229-1.689,0.471-2.549,0.728l-0.665,0.2
			c-0.893,0.275-1.778,0.564-2.683,0.873l-0.706,0.246c-0.809,0.284-1.612,0.575-2.402,0.876l-0.447,0.168
			c-0.601,0.232-1.199,0.469-1.792,0.712c-0.163,0.066-0.322,0.136-0.479,0.208c-13.479,5.597-26.446,14.475-38.503,26.35
			l-0.204,0.197c-0.454,0.449-0.9,0.898-1.348,1.353l-0.729,0.741c-0.513,0.525-1.021,1.051-1.531,1.587l-0.86,0.919
			c-0.303,0.323-0.605,0.646-0.916,0.983l-0.794,0.873c-0.304,0.335-0.606,0.668-0.936,1.036l-4.056,4.712l-4.873,6.125
			c-0.962,1.265-1.88,2.502-2.778,3.742l-2.747,3.963c-7.796-7.912-20.775-17.632-39.377-20.744
			c-7.044-1.179-14.556-2.071-21.827-2.934c-14.404-1.71-29.298-3.478-39.315-7.384c-0.417-0.162-0.826-0.329-1.248-0.51
			l-0.939,2.181l0.826-2.23c-0.34-0.146-0.676-0.297-1.003-0.45l-0.165-0.076c-0.683-0.324-1.354-0.671-1.93-1l-0.203-0.117
			c-0.253-0.146-0.502-0.296-0.753-0.455L89.013,34.7c-0.242-0.154-0.479-0.313-0.671-0.447L88.16,34.12
			c-0.192-0.138-0.378-0.279-0.576-0.435l-0.124-0.099c-0.188-0.151-0.373-0.304-0.471-0.391l-0.123-0.11
			c-0.16-0.145-0.315-0.296-0.425-0.407l-0.14-0.146c-0.112-0.117-0.221-0.235-0.346-0.38l-0.076-0.085
			c-0.101-0.118-0.199-0.238-0.287-0.352l-0.093-0.13c-0.091-0.125-0.176-0.252-0.233-0.339l-0.097-0.155
			c-0.07-0.114-0.138-0.229-0.207-0.359l-0.065-0.116c-0.064-0.124-0.122-0.247-0.142-0.291l-0.081-0.196
			c-0.051-0.123-0.1-0.248-0.122-0.308l-0.073-0.206c-0.055-0.165-0.109-0.332-0.155-0.504c-1.295-4.98-5.614-8.542-10.749-8.864
			c-5.133-0.318-9.866,2.672-11.773,7.449L22.104,127.14c-1.073,2.689-1.128,5.672-0.153,8.399c0.542,1.518,1.911,4.408,5.169,7.684
			l-6.474,16.283c-0.573,1.396-0.869,2.86-0.885,4.358l-1.115,2.583c-0.604,1.399-0.927,2.867-0.965,4.376
			c-1.601,2.645-2.098,5.803-1.405,8.801c-0.639,1.985-0.741,4.13-0.294,6.175l-0.065,0.144c-0.938,2.086-1.249,4.346-0.915,6.586
			l-0.45,0.787c-1.328,2.261-1.887,4.945-1.579,7.49L13.01,201.209z"/>
		<path style="fill:#6E6E6E;" d="M11.583,199.783c0.223,2.509,0.434,4.877,2.024,7.457c0.986,1.604,2.271,2.979,3.823,4.09
			l0.221,0.155c1.259,0.858,2.652,1.464,4.122,1.797l0.135,0.029c0.417,0.093,0.991,0.208,1.726,0.275
			c1.647,0.152,3.345-0.036,4.905-0.551c6.399-2.108,30.115-8.986,66.664-8.986c27.371,0,55.794,3.834,84.475,11.395
			c0.237,0.063,0.48,0.119,0.726,0.168c2.904,0.886,8.619,2.324,15.113,2.324c5.084,0,9.772-0.876,13.938-2.605
			c28.541-7.485,56.819-11.281,84.047-11.281c36.56,0,60.268,6.878,66.671,8.988l0.143,0.047c1.511,0.475,3.152,0.652,4.759,0.503
			c0.732-0.068,1.318-0.187,1.797-0.293c1.524-0.339,3.007-0.99,4.28-1.879l0.135-0.095c1.555-1.116,2.827-2.483,3.787-4.042
			c1.605-2.604,1.825-4.981,2.048-7.504l0.025-0.285c0.322-2.583-0.217-5.249-1.517-7.509l-0.489-0.851l-0.545-1.097
			c0.15-0.534,0.263-1.078,0.337-1.626c0.089-0.404,0.157-0.815,0.204-1.229c1.609-2.933,1.905-6.431,0.816-9.588
			c0.313-2.099,0.059-4.231-0.745-6.211l-6.582-16.198c1.221-1.233,2.157-2.719,2.745-4.376c0.574-1.617,0.809-3.327,0.697-5.085
			c-0.038-0.578-0.119-1.139-0.229-1.685c-0.135-0.67-0.304-1.302-0.527-1.932c-0.133-0.373-0.302-0.777-0.451-1.102
			c-0.086-0.186-0.171-0.368-0.258-0.542l-38.2-118.219c-1.083-3.35-3.575-6.03-6.838-7.354c-1.022-0.414-2.038-0.804-3.063-1.186
			l-1.267-0.463c-0.69-0.247-1.378-0.485-2.098-0.726l-0.364-0.122c-0.343-0.114-0.686-0.227-1.026-0.336l-0.611-0.191
			c-1.105-0.347-2.205-0.674-3.321-0.983l-0.352-0.1c-0.27-0.074-0.537-0.144-0.799-0.211l-0.481-0.125
			c-0.729-0.189-1.457-0.369-2.187-0.542l-0.722-0.168c-1.146-0.26-2.286-0.502-3.465-0.726l-0.389-0.07
			c-1.065-0.198-2.124-0.374-3.2-0.536l-0.531-0.081c-1.121-0.161-2.233-0.3-3.338-0.418l-0.689-0.071
			c-1.127-0.112-2.251-0.208-3.379-0.279l-0.141-0.008c-1.082-0.065-2.155-0.106-3.22-0.133l-0.643-0.015
			c-1.073-0.019-2.137-0.018-3.23,0.003l-0.593,0.016c-1.014,0.026-2.022,0.067-2.995,0.126l-0.313,0.017
			c-1.055,0.067-2.102,0.156-3.127,0.259l-0.709,0.073c-1.016,0.109-2.026,0.233-3.043,0.378l-0.525,0.08
			c-0.908,0.135-1.811,0.284-2.718,0.448l-0.529,0.094c-0.975,0.183-1.94,0.382-2.903,0.595l-0.723,0.164
			c-0.954,0.22-1.904,0.45-2.863,0.704l-0.396,0.108c-0.848,0.228-1.688,0.47-2.548,0.727l-0.664,0.2
			c-0.893,0.275-1.779,0.563-2.684,0.873l-0.706,0.246c-0.808,0.284-1.611,0.575-2.402,0.877l-0.447,0.169
			c-0.6,0.232-1.199,0.469-1.792,0.712c-0.162,0.066-0.322,0.136-0.479,0.208c-13.479,5.598-26.446,14.476-38.504,26.351
			l-0.204,0.197c-0.454,0.449-0.899,0.899-1.348,1.353l-0.73,0.742c-0.513,0.524-1.021,1.051-1.531,1.587l-0.861,0.918
			c-0.302,0.323-0.605,0.646-0.916,0.983l-0.794,0.873c-0.303,0.334-0.605,0.668-0.935,1.036l-4.056,4.711l-4.872,6.126
			c-0.962,1.264-1.881,2.501-2.778,3.741l-2.747,3.964c-7.795-7.912-20.775-17.631-39.377-20.745
			c-7.044-1.178-14.557-2.069-21.828-2.933c-14.403-1.71-29.297-3.478-39.314-7.384c-0.417-0.163-0.826-0.331-1.248-0.511
			l-0.939,2.182l0.827-2.231c-0.34-0.147-0.676-0.297-1.003-0.451l-0.165-0.075c-0.682-0.323-1.354-0.671-1.93-1l-0.204-0.118
			c-0.253-0.146-0.501-0.296-0.753-0.455l-0.095-0.059c-0.242-0.155-0.479-0.313-0.67-0.447l-0.184-0.134
			c-0.192-0.137-0.379-0.279-0.576-0.434l-0.124-0.099c-0.188-0.151-0.373-0.304-0.47-0.391l-0.123-0.111
			c-0.16-0.146-0.314-0.297-0.425-0.406l-0.139-0.147c-0.113-0.117-0.222-0.235-0.347-0.38l-0.076-0.084
			c-0.101-0.119-0.199-0.238-0.287-0.353l-0.093-0.131c-0.091-0.124-0.176-0.251-0.234-0.339l-0.097-0.154
			c-0.07-0.114-0.138-0.23-0.208-0.359l-0.065-0.116c-0.065-0.123-0.123-0.246-0.142-0.29l-0.082-0.197
			c-0.051-0.124-0.101-0.249-0.121-0.308l-0.073-0.207c-0.055-0.164-0.11-0.33-0.155-0.504c-1.295-4.979-5.614-8.541-10.749-8.864
			c-5.133-0.317-9.866,2.672-11.773,7.449l-39.698,99.445c-1.073,2.689-1.128,5.672-0.153,8.399
			c0.542,1.519,1.911,4.409,5.169,7.685L19.22,158.08c-0.572,1.396-0.869,2.859-0.885,4.358l-1.114,2.584
			c-0.604,1.398-0.927,2.867-0.966,4.376c-1.601,2.645-2.098,5.802-1.405,8.801c-0.639,1.985-0.741,4.131-0.293,6.175l-0.065,0.145
			c-0.938,2.085-1.249,4.346-0.916,6.586l-0.449,0.787c-1.329,2.26-1.887,4.945-1.58,7.489L11.583,199.783z"/>
		<path style="fill:#606060;" d="M10.157,198.357c0.223,2.509,0.433,4.878,2.024,7.458c0.986,1.604,2.271,2.979,3.823,4.09
			l0.221,0.155c1.258,0.858,2.652,1.464,4.122,1.797l0.135,0.03c0.417,0.092,0.991,0.208,1.726,0.275
			c1.647,0.152,3.345-0.036,4.905-0.551c6.399-2.108,30.115-8.986,66.665-8.986c27.371,0,55.794,3.834,84.474,11.395
			c0.238,0.063,0.48,0.119,0.727,0.168c2.904,0.886,8.619,2.323,15.113,2.324c5.083,0,9.771-0.877,13.938-2.605
			c28.54-7.485,56.818-11.281,84.047-11.281c36.559,0,60.267,6.878,66.671,8.988l0.143,0.046c1.511,0.475,3.152,0.649,4.759,0.503
			c0.732-0.07,1.318-0.187,1.797-0.293c1.524-0.339,3.006-0.99,4.28-1.879l0.134-0.096c1.555-1.115,2.833-2.48,3.787-4.041
			c1.614-2.599,1.826-4.982,2.049-7.504l0.024-0.285c0.322-2.583-0.217-5.25-1.516-7.51l-0.49-0.851l-0.545-1.096
			c0.15-0.535,0.263-1.079,0.336-1.627c0.089-0.404,0.157-0.814,0.204-1.228c1.609-2.934,1.905-6.431,0.816-9.588
			c0.313-2.1,0.058-4.232-0.746-6.211l-6.582-16.198c1.221-1.233,2.157-2.719,2.746-4.377c0.574-1.617,0.808-3.326,0.697-5.085
			c-0.038-0.579-0.116-1.141-0.23-1.685c-0.13-0.671-0.303-1.303-0.527-1.932c-0.133-0.373-0.3-0.778-0.451-1.103
			c-0.084-0.187-0.171-0.368-0.258-0.543l-38.2-118.218c-1.082-3.351-3.574-6.03-6.837-7.353c-1.022-0.415-2.038-0.804-3.062-1.186
			l-1.268-0.463c-0.69-0.248-1.379-0.485-2.098-0.726l-0.364-0.122c-0.343-0.114-0.685-0.228-1.025-0.336l-0.611-0.191
			c-1.105-0.347-2.206-0.674-3.322-0.984l-0.352-0.099c-0.27-0.074-0.537-0.145-0.799-0.211l-0.481-0.126
			c-0.729-0.19-1.456-0.369-2.187-0.541l-0.721-0.168c-1.147-0.261-2.286-0.504-3.466-0.728l-0.389-0.069
			c-1.064-0.198-2.123-0.374-3.199-0.537l-0.53-0.08c-1.121-0.162-2.233-0.3-3.339-0.418l-0.688-0.07
			c-1.128-0.112-2.251-0.208-3.379-0.279l-0.141-0.007c-1.081-0.065-2.155-0.107-3.22-0.133l-0.643-0.015
			c-1.072-0.02-2.136-0.018-3.229,0.002l-0.593,0.016c-1.014,0.026-2.022,0.067-2.995,0.125l-0.314,0.017
			c-1.055,0.068-2.102,0.157-3.127,0.26l-0.71,0.072c-1.016,0.11-2.025,0.234-3.042,0.379l-0.526,0.08
			c-0.908,0.135-1.811,0.284-2.718,0.448l-0.529,0.094c-0.975,0.182-1.941,0.382-2.904,0.595l-0.723,0.164
			c-0.955,0.22-1.904,0.45-2.862,0.703l-0.396,0.108c-0.848,0.229-1.689,0.47-2.548,0.728l-0.664,0.2
			c-0.894,0.275-1.779,0.564-2.684,0.874l-0.706,0.246c-0.808,0.283-1.612,0.575-2.402,0.875l-0.447,0.169
			c-0.601,0.233-1.199,0.469-1.793,0.712c-0.162,0.066-0.321,0.136-0.479,0.208c-13.479,5.598-26.446,14.476-38.503,26.351
			l-0.205,0.197c-0.454,0.449-0.899,0.898-1.347,1.353l-0.729,0.742c-0.513,0.525-1.021,1.051-1.531,1.587l-0.861,0.919
			c-0.303,0.322-0.605,0.645-0.916,0.983l-0.794,0.872c-0.303,0.335-0.605,0.668-0.935,1.037l-4.056,4.711l-4.873,6.125
			c-0.962,1.265-1.88,2.502-2.777,3.742l-2.748,3.963c-7.795-7.911-20.774-17.631-39.377-20.744
			c-7.044-1.179-14.556-2.07-21.827-2.933c-14.403-1.71-29.297-3.478-39.314-7.384c-0.416-0.163-0.826-0.33-1.249-0.51l-0.939,2.181
			l0.826-2.23c-0.341-0.146-0.676-0.297-1.003-0.45l-0.165-0.076c-0.682-0.323-1.354-0.671-1.93-0.999l-0.204-0.118
			c-0.254-0.146-0.502-0.296-0.754-0.454l-0.094-0.059c-0.242-0.155-0.479-0.313-0.67-0.447l-0.183-0.134
			c-0.192-0.137-0.379-0.278-0.576-0.434l-0.124-0.099c-0.188-0.152-0.373-0.305-0.47-0.392l-0.124-0.111
			c-0.16-0.145-0.314-0.296-0.425-0.406l-0.139-0.148c-0.113-0.116-0.221-0.235-0.347-0.379l-0.076-0.084
			c-0.101-0.119-0.199-0.239-0.287-0.353l-0.093-0.13c-0.091-0.124-0.177-0.251-0.233-0.34l-0.097-0.154
			c-0.07-0.113-0.138-0.23-0.208-0.359l-0.065-0.116c-0.064-0.124-0.122-0.247-0.142-0.29l-0.081-0.197
			c-0.051-0.123-0.101-0.248-0.122-0.308l-0.073-0.207c-0.055-0.164-0.11-0.33-0.155-0.504c-1.295-4.979-5.614-8.541-10.749-8.864
			c-5.133-0.317-9.866,2.672-11.773,7.449l-39.697,99.445c-1.073,2.689-1.128,5.672-0.154,8.399
			c0.543,1.519,1.911,4.409,5.169,7.684l-6.474,16.284c-0.572,1.396-0.869,2.859-0.885,4.358l-1.114,2.584
			c-0.604,1.399-0.927,2.868-0.966,4.376c-1.6,2.645-2.098,5.802-1.405,8.8c-0.639,1.985-0.741,4.131-0.295,6.175l-0.064,0.144
			c-0.938,2.086-1.249,4.346-0.915,6.587l-0.449,0.787c-1.329,2.261-1.887,4.945-1.58,7.49L10.157,198.357z"/>
	</g>
	<path style="fill:#FFFFFF;" d="M10.157,198.357c0.223,2.509,0.433,4.878,2.024,7.458c0.986,1.604,2.271,2.979,3.823,4.09
		l0.221,0.155c1.258,0.858,2.652,1.464,4.122,1.797l0.135,0.03c0.417,0.092,0.991,0.208,1.726,0.275
		c1.647,0.152,3.345-0.036,4.905-0.551c6.399-2.108,30.115-8.986,66.665-8.986c27.371,0,55.794,3.834,84.474,11.395
		c0.238,0.063,0.48,0.119,0.727,0.168c2.904,0.886,8.619,2.323,15.113,2.324c5.083,0,9.771-0.877,13.938-2.605
		c28.54-7.485,56.818-11.281,84.047-11.281c36.559,0,60.267,6.878,66.671,8.988l0.143,0.046c1.511,0.475,3.152,0.649,4.759,0.503
		c0.732-0.07,1.318-0.187,1.797-0.293c1.524-0.339,3.006-0.99,4.28-1.879l0.134-0.096c1.555-1.115,2.833-2.48,3.787-4.041
		c1.614-2.599,1.826-4.982,2.049-7.504l0.024-0.285c0.322-2.583-0.217-5.25-1.516-7.51l-0.49-0.851l-0.545-1.096
		c0.15-0.535,0.263-1.079,0.336-1.627c0.089-0.404,0.157-0.814,0.204-1.228c1.609-2.934,1.905-6.431,0.816-9.588
		c0.313-2.1,0.058-4.232-0.746-6.211l-6.582-16.198c1.221-1.233,2.157-2.719,2.746-4.377c0.574-1.617,0.808-3.326,0.697-5.085
		c-0.038-0.579-0.116-1.141-0.23-1.685c-0.13-0.671-0.303-1.303-0.527-1.932c-0.133-0.373-0.3-0.778-0.451-1.103
		c-0.084-0.187-0.171-0.368-0.258-0.543l-38.2-118.218c-1.082-3.351-3.574-6.03-6.837-7.353c-1.022-0.415-2.038-0.804-3.062-1.186
		l-1.268-0.463c-0.69-0.248-1.379-0.485-2.098-0.726l-0.364-0.122c-0.343-0.114-0.685-0.228-1.025-0.336l-0.611-0.191
		c-1.105-0.347-2.206-0.674-3.322-0.984l-0.352-0.099c-0.27-0.074-0.537-0.145-0.799-0.211l-0.481-0.126
		c-0.729-0.19-1.456-0.369-2.187-0.541l-0.721-0.168c-1.147-0.261-2.286-0.504-3.466-0.728l-0.389-0.069
		c-1.064-0.198-2.123-0.374-3.199-0.537l-0.53-0.08c-1.121-0.162-2.233-0.3-3.339-0.418l-0.688-0.07
		c-1.128-0.112-2.251-0.208-3.379-0.279l-0.141-0.007c-1.081-0.065-2.155-0.107-3.22-0.133l-0.643-0.015
		c-1.072-0.02-2.136-0.018-3.229,0.002l-0.593,0.016c-1.014,0.026-2.022,0.067-2.995,0.125l-0.314,0.017
		c-1.055,0.068-2.102,0.157-3.127,0.26l-0.71,0.072c-1.016,0.11-2.025,0.234-3.042,0.379l-0.526,0.08
		c-0.908,0.135-1.811,0.284-2.718,0.448l-0.529,0.094c-0.975,0.182-1.941,0.382-2.904,0.595l-0.723,0.164
		c-0.955,0.22-1.904,0.45-2.862,0.703l-0.396,0.108c-0.848,0.229-1.689,0.47-2.548,0.728l-0.664,0.2
		c-0.894,0.275-1.779,0.564-2.684,0.874l-0.706,0.246c-0.808,0.283-1.612,0.575-2.402,0.875l-0.447,0.169
		c-0.601,0.233-1.199,0.469-1.793,0.712c-0.162,0.066-0.321,0.136-0.479,0.208c-13.479,5.598-26.446,14.476-38.503,26.351
		l-0.205,0.197c-0.454,0.449-0.899,0.898-1.347,1.353l-0.729,0.742c-0.513,0.525-1.021,1.051-1.531,1.587l-0.861,0.919
		c-0.303,0.322-0.605,0.645-0.916,0.983l-0.794,0.872c-0.303,0.335-0.605,0.668-0.935,1.037l-4.056,4.711l-4.873,6.125
		c-0.962,1.265-1.88,2.502-2.777,3.742l-2.748,3.963c-7.795-7.911-20.774-17.631-39.377-20.744
		c-7.044-1.179-14.556-2.07-21.827-2.933c-14.403-1.71-29.297-3.478-39.314-7.384c-0.416-0.163-0.826-0.33-1.249-0.51l-0.939,2.181
		l0.826-2.23c-0.341-0.146-0.676-0.297-1.003-0.45l-0.165-0.076c-0.682-0.323-1.354-0.671-1.93-0.999l-0.204-0.118
		c-0.254-0.146-0.502-0.296-0.754-0.454l-0.094-0.059c-0.242-0.155-0.479-0.313-0.67-0.447l-0.183-0.134
		c-0.192-0.137-0.379-0.278-0.576-0.434l-0.124-0.099c-0.188-0.152-0.373-0.305-0.47-0.392l-0.124-0.111
		c-0.16-0.145-0.314-0.296-0.425-0.406l-0.139-0.148c-0.113-0.116-0.221-0.235-0.347-0.379l-0.076-0.084
		c-0.101-0.119-0.199-0.239-0.287-0.353l-0.093-0.13c-0.091-0.124-0.177-0.251-0.233-0.34l-0.097-0.154
		c-0.07-0.113-0.138-0.23-0.208-0.359l-0.065-0.116c-0.064-0.124-0.122-0.247-0.142-0.29l-0.081-0.197
		c-0.051-0.123-0.101-0.248-0.122-0.308l-0.073-0.207c-0.055-0.164-0.11-0.33-0.155-0.504c-1.295-4.979-5.614-8.541-10.749-8.864
		c-5.133-0.317-9.866,2.672-11.773,7.449l-39.697,99.445c-1.073,2.689-1.128,5.672-0.154,8.399c0.543,1.519,1.911,4.409,5.169,7.684
		l-6.474,16.284c-0.572,1.396-0.869,2.859-0.885,4.358l-1.114,2.584c-0.604,1.399-0.927,2.868-0.966,4.376
		c-1.6,2.645-2.098,5.802-1.405,8.8c-0.639,1.985-0.741,4.131-0.295,6.175l-0.064,0.144c-0.938,2.086-1.249,4.346-0.915,6.587
		l-0.449,0.787c-1.329,2.261-1.887,4.945-1.58,7.49L10.157,198.357z"/>
	<g>
		<g>
			<g>
				<g>
					<path style="fill:#580000;" d="M181.34,202.273c0,0,13.238,4.902,23.173,0l2.109-7.556h-25.507L181.34,202.273z"/>
					<path style="fill:#5C2008;" d="M194.092,204.636c-0.001,0-0.001,0-0.001,0c-6.82-0.001-12.755-2.168-12.814-2.189
						c-0.07-0.027-0.117-0.093-0.12-0.168l-0.225-7.556c-0.002-0.05,0.017-0.098,0.052-0.134c0.035-0.036,0.083-0.056,0.132-0.056
						h25.507c0.058,0,0.112,0.027,0.146,0.072c0.036,0.046,0.045,0.105,0.031,0.161l-2.109,7.556
						c-0.014,0.051-0.049,0.093-0.095,0.115C201.639,203.897,198.105,204.636,194.092,204.636z M181.52,202.142
						c0.859,0.301,6.341,2.126,12.569,2.126c0,0,0.001,0,0.002,0c3.924,0,7.377-0.714,10.267-2.124l2.021-7.244h-25.076
						L181.52,202.142z"/>
				</g>
				<g>
					<path style="fill:#960613;" d="M180.246,200.882l1.094-0.663c0,0,13.238,4.902,23.173,0l2.012,0.492l0.097-8.049h-25.507
						L180.246,200.882z"/>
					<path style="fill:#D33D1F;" d="M194.09,202.581c-6.377,0-11.98-1.896-12.729-2.16l-1.019,0.618
						c-0.06,0.036-0.135,0.035-0.194-0.003c-0.059-0.036-0.091-0.105-0.084-0.173l0.868-8.22c0.011-0.094,0.089-0.165,0.184-0.165
						h25.507c0.05,0,0.097,0.02,0.131,0.055c0.035,0.034,0.054,0.082,0.054,0.131l-0.097,8.048c0,0.056-0.027,0.108-0.071,0.144
						c-0.044,0.035-0.102,0.046-0.157,0.032l-1.947-0.477C201.592,201.852,198.078,202.581,194.09,202.581z M181.34,200.034
						c0.021,0,0.043,0.004,0.064,0.012c0.059,0.021,5.935,2.167,12.686,2.167c3.958,0,7.438-0.727,10.343-2.159
						c0.039-0.02,0.083-0.024,0.125-0.014l1.788,0.437l0.091-7.63h-25.156l-0.813,7.686l0.777-0.472
						C181.274,200.043,181.308,200.034,181.34,200.034z"/>
				</g>
				<g>
					<g>
						<path style="fill:#580000;" d="M355.309,181.9l8.447,14.671c-0.046,0.264-0.209,2.691-0.351,2.919
							c-0.158,0.256-0.354,0.45-0.574,0.606c-0.103,0.022-0.205,0.049-0.317,0.06c-12.022-3.96-71.295-20.649-158.001,2.205v-14.534
							C225.109,181.914,304.096,161.618,355.309,181.9z"/>
						<path style="fill:#5C2008;" d="M204.514,202.545c-0.04,0-0.08-0.013-0.112-0.038c-0.045-0.035-0.071-0.089-0.071-0.146
							v-14.534c0-0.082,0.054-0.154,0.133-0.177c15.436-4.432,55.712-14.74,96.208-14.74c21.523,0,39.93,2.966,54.706,8.819
							c0.04,0.015,0.071,0.043,0.091,0.079l8.447,14.672c0.021,0.038,0.029,0.081,0.021,0.124c-0.013,0.072-0.039,0.367-0.069,0.708
							c-0.125,1.41-0.203,2.109-0.306,2.275c-0.157,0.257-0.361,0.472-0.623,0.659c-0.02,0.014-0.043,0.024-0.068,0.03l-0.057,0.013
							c-0.091,0.02-0.183,0.04-0.281,0.05c-0.025,0.004-0.052,0-0.077-0.008c-6.823-2.249-32.062-9.583-70.379-9.583
							c-28.391,0-57.835,3.966-87.516,11.79C204.545,202.544,204.53,202.545,204.514,202.545z M204.698,187.966v14.157
							c29.634-7.792,59.03-11.743,87.379-11.743c38.299,0,63.563,7.322,70.456,9.589c0.069-0.01,0.135-0.025,0.2-0.039l0.021-0.005
							c0.207-0.152,0.368-0.326,0.494-0.531c0.081-0.169,0.197-1.483,0.253-2.115c0.03-0.332,0.05-0.553,0.064-0.671l-8.382-14.561
							c-14.724-5.819-33.063-8.769-54.511-8.769C260.337,173.278,220.217,183.518,204.698,187.966z"/>
					</g>
					<g>
						<path style="fill:#960613;" d="M355.309,179.756l8.372,16.85c-0.047,0.263-0.134,0.514-0.275,0.742
							c-0.158,0.257-0.354,0.45-0.574,0.607c-0.103,0.022-0.205,0.047-0.317,0.059c-12.022-3.96-71.295-20.648-158.001,2.206
							v-14.534C225.109,179.77,304.096,159.475,355.309,179.756z"/>
						<path style="fill:#D33D1F;" d="M204.514,200.402c-0.04,0-0.08-0.013-0.112-0.038c-0.045-0.035-0.071-0.089-0.071-0.146
							v-14.534c0-0.082,0.054-0.154,0.133-0.176c15.434-4.432,55.707-14.742,96.209-14.742c21.522,0,39.929,2.967,54.705,8.819
							c0.042,0.017,0.077,0.048,0.097,0.089l8.371,16.849c0.017,0.035,0.023,0.075,0.016,0.114
							c-0.052,0.303-0.153,0.573-0.299,0.807c-0.157,0.256-0.361,0.473-0.623,0.659c-0.02,0.015-0.043,0.025-0.068,0.029
							l-0.057,0.013c-0.091,0.021-0.183,0.04-0.281,0.051c-0.024,0.002-0.052-0.001-0.077-0.01
							c-6.823-2.247-32.064-9.581-70.38-9.581c-28.39,0-57.834,3.966-87.515,11.79C204.545,200.399,204.53,200.402,204.514,200.402z
							 M204.698,185.823v14.157c29.634-7.792,59.029-11.742,87.378-11.742c38.298,0,63.564,7.321,70.457,9.588
							c0.069-0.01,0.135-0.024,0.2-0.039l0.021-0.004c0.207-0.153,0.368-0.327,0.494-0.533c0.114-0.181,0.193-0.384,0.24-0.617
							l-8.312-16.731c-14.723-5.817-33.059-8.767-54.504-8.767C260.334,171.135,220.216,181.374,204.698,185.823z"/>
					</g>
				</g>
				<g>
					<g>
						<path style="fill:#580000;" d="M30.545,181.9l-8.447,14.671c0.047,0.264,0.208,2.691,0.351,2.919
							c0.158,0.256,0.354,0.45,0.574,0.606c0.104,0.022,0.205,0.049,0.317,0.06c12.022-3.96,71.296-20.649,158.001,2.205v-14.534
							C160.745,181.914,81.758,161.618,30.545,181.9z"/>
						<path style="fill:#5C2008;" d="M181.34,202.545c-0.016,0-0.032-0.001-0.047-0.006c-29.681-7.824-59.126-11.79-87.515-11.79
							c-38.317,0-63.557,7.334-70.381,9.583c-0.024,0.008-0.05,0.011-0.076,0.008c-0.098-0.01-0.189-0.03-0.28-0.05l-0.058-0.013
							c-0.024-0.005-0.047-0.016-0.068-0.03c-0.262-0.188-0.466-0.402-0.624-0.66c-0.104-0.165-0.181-0.867-0.306-2.279
							c-0.03-0.338-0.056-0.631-0.069-0.705c-0.007-0.042,0-0.085,0.022-0.123l8.446-14.672c0.021-0.036,0.053-0.064,0.092-0.079
							c14.776-5.853,33.182-8.819,54.706-8.819c40.496,0,80.772,10.308,96.208,14.74c0.079,0.023,0.133,0.096,0.133,0.177v14.534
							c0,0.057-0.027,0.111-0.072,0.146C181.42,202.532,181.381,202.545,181.34,202.545z M93.778,190.38
							c28.348,0,57.744,3.951,87.378,11.743v-14.157c-15.519-4.449-55.64-14.688-95.973-14.688c-21.448,0-39.788,2.95-54.511,8.769
							l-8.383,14.561c0.015,0.118,0.034,0.337,0.064,0.667c0.056,0.633,0.173,1.95,0.255,2.123c0.124,0.201,0.286,0.374,0.492,0.527
							l0.022,0.005c0.065,0.015,0.131,0.029,0.2,0.039C30.214,197.702,55.479,190.38,93.778,190.38z"/>
					</g>
					<g>
						<path style="fill:#960613;" d="M30.545,179.756l-8.371,16.85c0.047,0.263,0.133,0.514,0.275,0.742
							c0.158,0.257,0.354,0.45,0.574,0.607c0.104,0.022,0.205,0.047,0.317,0.059c12.022-3.96,71.296-20.648,158.001,2.206v-14.534
							C160.745,179.77,81.758,159.475,30.545,179.756z"/>
						<path style="fill:#D33D1F;" d="M181.34,200.402c-0.016,0-0.032-0.003-0.047-0.006c-29.681-7.824-59.126-11.79-87.515-11.79
							c-38.316,0-63.558,7.334-70.381,9.581c-0.024,0.009-0.05,0.011-0.076,0.01c-0.098-0.012-0.189-0.03-0.28-0.051l-0.058-0.014
							c-0.024-0.004-0.047-0.015-0.068-0.029c-0.262-0.186-0.466-0.403-0.624-0.661c-0.145-0.231-0.246-0.502-0.299-0.805
							c-0.007-0.039-0.001-0.079,0.016-0.114l8.371-16.849c0.02-0.041,0.055-0.072,0.097-0.089
							c14.776-5.853,33.182-8.819,54.706-8.819c40.501,0,80.773,10.31,96.208,14.742c0.079,0.022,0.133,0.095,0.133,0.176v14.534
							c0,0.057-0.027,0.11-0.072,0.146C181.42,200.389,181.381,200.402,181.34,200.402z M93.778,188.238
							c28.348,0,57.743,3.95,87.378,11.742v-14.157c-15.518-4.449-55.635-14.688-95.973-14.688c-21.446,0-39.783,2.949-54.505,8.767
							l-8.312,16.731c0.047,0.233,0.126,0.436,0.238,0.616c0.126,0.207,0.288,0.381,0.495,0.534l0.022,0.004
							c0.065,0.015,0.131,0.029,0.2,0.039C30.214,195.559,55.48,188.238,93.778,188.238z"/>
					</g>
				</g>
			</g>
			<path style="fill:#EDC7A4;" d="M361.912,184.422l-0.484-4.143l-1.139-2.955l-7.784-9.527c0,0-18.544-17.577-68.211-19.863
				c-35.788-1.647-72.664,7.983-90.478,13.494c-17.814-5.51-54.688-15.141-90.478-13.494c-49.667,2.287-68.212,19.863-68.212,19.863
				l-7.785,5.166l-0.278,4.552l-0.484,4.144l0.968,2.573l-1.29,2.286l0.161,1.858l0.161,4.001v3.001c0,0,26.608-12.003,79.5-10.289
				c49.53,1.606,76.782,12.862,76.782,12.862c4.132-2.197,7.83-3.057,10.953-3.215c3.123,0.158,6.82,1.018,10.953,3.215
				c0,0,27.253-11.256,76.784-12.862c52.892-1.714,79.5,10.289,79.5,10.289v-3.001l0.162-4.001l0.161-1.858l-1.29-2.286
				L361.912,184.422z"/>
		</g>
		<g>
			<path style="fill:#DC975F;" d="M32.778,190.734c0,0,58.667-24.406,151.238,5.518C184.017,196.252,104.712,171.725,32.778,190.734
				z"/>
			<path style="fill:#DC975F;" d="M92.256,179.145c0,0,53.656-1.657,93.751,16.372C186.007,195.517,154.831,182.823,92.256,179.145z
				"/>
			<path style="fill:#DC975F;" d="M135.078,179.88c0,0,31.545,3.066,51.887,13.613C186.965,193.493,163.38,184.295,135.078,179.88z"
				/>
			<path style="fill:#DC975F;" d="M163.675,183.436c0,0,16.51,2.33,23.88,8.708C187.555,192.144,175.91,186.748,163.675,183.436z"/>
			<path style="fill:#DC975F;" d="M178.416,185.89c0,0,9.139,2.575,13.267,6.99C191.683,192.88,182.543,188.097,178.416,185.89z"/>
		</g>
		<g>
			<path style="fill:#DC975F;" d="M357.516,190.734c0,0-58.669-24.406-151.239,5.518
				C206.276,196.252,285.581,171.725,357.516,190.734z"/>
			<path style="fill:#DC975F;" d="M298.037,179.145c0,0-53.657-1.657-93.751,16.372
				C204.286,195.517,235.462,182.823,298.037,179.145z"/>
			<path style="fill:#DC975F;" d="M255.215,179.88c0,0-31.545,3.066-51.887,13.613C203.328,193.493,226.913,184.295,255.215,179.88z
				"/>
		</g>
		<path style="fill:#DC975F;" d="M197.947,191.471c0,0,33.388-18.396,75.841-18.764c42.453-0.369,70.755,12.141,70.755,12.141
			s-41.79-12.51-78.052-9.75C230.229,177.857,197.947,191.471,197.947,191.471z"/>
		<path style="opacity:0.9;fill:#EDC49C;" d="M361.912,184.422l-0.484-4.143l-1.139-2.955l-7.784-9.527
			c0,0-18.544-17.577-68.211-19.863c-35.788-1.647-72.664,7.983-90.478,13.494c-17.814-5.51-54.688-15.141-90.478-13.494
			c-49.667,2.287-68.212,19.863-68.212,19.863l-7.785,5.166l-0.278,4.552l-0.484,4.144l0.968,2.573l-1.29,2.286l0.161,1.858
			l0.161,4.001v3.001c0,0,26.608-12.003,79.5-10.289c49.53,1.606,76.782,12.862,76.782,12.862c4.132-2.197,7.83-3.057,10.953-3.215
			c3.123,0.158,6.82,1.018,10.953,3.215c0,0,27.253-11.256,76.784-12.862c52.892-1.714,79.5,10.289,79.5,10.289v-3.001l0.162-4.001
			l0.161-1.858l-1.29-2.286L361.912,184.422z"/>
		<g>
			<g>
				<path style="opacity:0.4;fill:#DC975F;" d="M193.697,189.095c0,0,71.786-40.417,166.218-0.383l-1.825-6.124
					c0,0-32.96-20.895-85.309-19.843c-52.35,1.051-79.735,12.094-79.735,12.094s-98.794-34.969-159.469-8.412l-9.682,21.533
					c0,0,67.271-29.628,169.02,1.134H193.697z"/>
				<g>
					<path style="fill:#EDC49C;" d="M23.896,187.961c0,0,24.247-19.297,91.898-13.972c54.023,4.25,76.927,15.065,77.194,14.8
						l0.193-2.311l-0.941-31.684c0,0-140.275-30.527-141.28-15.71C50.942,139.355,23.851,187.936,23.896,187.961z"/>
					<path style="fill:#DC975F;" d="M25.669,184.569c0,0,24.314-18.656,91.966-13.331c54.023,4.251,75.086,17.816,75.353,17.551
						l0.193-2.311l-0.941-31.684c0,0-140.275-30.527-141.28-15.71C50.942,139.355,25.623,184.544,25.669,184.569z"/>
					<path style="fill:#F6E1CC;" d="M75.323,85.91L24.986,184.31c0,0,48.238-40.771,167.984,4.461l-1.066-78.605
						C191.904,110.165,153.446,77.828,75.323,85.91z"/>
					<path style="fill:#EDC49C;" d="M81.363,86.435L24.986,184.31c0,0,26.634-17.973,80.144-15.176
						c24.086,1.258,50.67,5.596,87.84,19.637l-1.066-78.605C191.904,110.165,159.487,78.352,81.363,86.435z"/>
					<path style="fill:#EDC49C;" d="M81.363,86.435l-53.219,93.032c0,0,27.347-17.517,80.699-12.63
						c27.16,2.488,46.439,7.018,84.128,21.934l-1.066-78.605C191.904,110.165,159.487,78.352,81.363,86.435z"/>
					<path style="fill:#EDC49C;" d="M83.177,81.507L24.721,180.43c0,0,27.701-18.219,78.845-15.124
						c24.593,1.488,53.115,6.28,89.404,23.465l-1.266-82.483C191.705,106.287,136.333,56.002,83.177,81.507z"/>
					<path style="fill:#EDC49C;" d="M83.177,81.507l-54.057,91.55c0,0,69.887-34.668,163.85,15.714l-1.266-82.483
						C191.705,106.287,136.333,56.002,83.177,81.507z"/>
					<path style="fill:#EDC49C;" d="M85.793,76.577L24.988,174.12c0,0,68.304-39.589,167.982,14.65l-1.534-95.893
						C191.437,92.878,130.089,54.753,85.793,76.577z"/>
					<path style="fill:#EDC49C;" d="M85.793,76.577l-56.999,91.408c0,0,73.339-28.576,164.176,20.786l-1.534-95.893
						C191.437,92.878,130.089,54.753,85.793,76.577z"/>
					<path style="fill:#EDC49C;" d="M85.793,76.577L42.33,132.069l-15.632,36.231c0-0.001,57.72-22.514,125.913,1.406
						c12.892,4.522,25.995,11.247,40.359,19.063l-1.534-95.893C191.437,92.878,130.089,54.753,85.793,76.577z"/>
					<path style="fill:#EDC49C;" d="M86.054,76.32l-43.463,55.494l-12.624,29.6c0,0,45.608-14.316,104.146-0.765
						c25.076,5.805,34.977,11.163,59.117,27.867l-1.534-95.894C191.697,92.622,130.35,54.498,86.054,76.32z"/>
					<path style="fill:#F6E1CC;" d="M85.793,76.577l-45.547,55.748l-11.464,28.832c0,0,54.951-19.033,117.577,1.088
						c16.626,5.342,25.011,8.42,46.612,26.526l-1.534-95.893C191.437,92.878,130.089,54.753,85.793,76.577z"/>
					<path style="fill:#EDC49C;" d="M35.049,152.222c2.02-2.964,4.685-6.934,8.643-7.374c1.794-0.198,3.554,0.232,5.283,0.65
						c2.274,0.552,4.572,1.008,6.888,1.364c5.44,0.838,10.933,1.236,16.401,1.847c6.288,0.701,44.248-0.847,72.531,6.837
						c5.469,1.485,11.242,3.642,16.413,5.932c4.979,2.206,8.347,4.298,12.896,7.272c4.59,2.999,10.053,8.038,13.544,12.26
						c1.933,2.335,3.626,4.838,5.315,7.343l-1.527-95.476c0,0-61.348-38.125-105.644-16.301l-45.547,55.748l-11.46,28.822
						C31.206,158.432,33.009,155.217,35.049,152.222z"/>
					<path style="fill:#EDC49C;" d="M332.206,139.094l29.533,46.302c0,0-73.717-33.676-157.146-1.284l-11.622,4.659l19.406-21.748
						L332.206,139.094z"/>
					<path style="fill:#EDC49C;" d="M332.206,139.094l27.135,42.669c0,0-71.124-33.489-154.748,2.348l-11.622,4.659l19.406-21.748
						L332.206,139.094z"/>
					<path style="fill:#EDC49C;" d="M362,182.588c0,0-78.75-40.806-169.029,6.183l0.884-50.669c0,0,130.667-7.889,140.601,0.261
						L362,182.588z"/>
					<path style="fill:#EDC49C;" d="M359.928,179.276c0,0-86.756-42.865-166.957,9.495l0.884-50.669
						c0,0,130.667-7.889,140.601,0.261L359.928,179.276z"/>
					<path style="fill:#EDC49C;" d="M363.302,180.037c0,0-91.328-47.72-170.331,8.734l1.686-68.549
						c0,0,125.884-17.609,142.798,14.467L363.302,180.037z"/>
					<path style="fill:#EDC49C;" d="M360.123,174.491c0,0-93.986-44.97-167.152,14.279l1.686-68.549
						c0,0,125.884-17.609,142.798,14.467L360.123,174.491z"/>
					<path style="fill:#F6E1CC;" d="M192.971,188.77c0,0,30.557-31.824,86.831-31.824c58.241,0,82.979,17.477,82.979,17.477
						L319.494,67.899c0,0-102.554-8.938-127.79,36.023L192.971,188.77z"/>
					<path style="fill:#F6E1CC;" d="M192.971,188.77c0,0,30.557-31.824,86.831-31.824c58.241,0,82.979,17.477,82.979,17.477
						L319.494,67.899c0,0-102.554-8.938-127.79,36.023L192.971,188.77z"/>
					<path style="fill:#F6E1CC;" d="M192.971,188.77c0,0,30.557-31.824,86.831-31.824c58.241,0,82.979,17.477,82.979,17.477
						L319.494,67.899c0,0-102.554-8.938-127.79,36.023L192.971,188.77z"/>
					<path style="opacity:0.5;fill:#EDC49C;" d="M210.768,173.645c16.089-10.831,34.555-17.794,53.569-21.839
						c17.887-3.805,36.624-5.751,54.911-4.242c12.735,1.05,26.049,3.955,36.952,10.662l-36.705-90.326
						c0,0-102.554-8.938-127.79,36.023l1.257,84.297C198.429,182.82,204.413,177.922,210.768,173.645z"/>
					<path style="opacity:0.9;fill:#EDC49C;" d="M197.973,183.549c0.162-0.183,0.32-0.368,0.483-0.549
						c6.812-7.569,14.577-14.285,23.052-20.02c8.664-5.863,18.071-11.033,27.868-14.849c11.255-4.386,23.173-6.704,35.138-8.301
						c8.931-1.192,17.967-1.853,26.982-1.786c13.03,0.093,27.191,1.537,39.321,6.94l-31.323-77.085c0,0-102.554-8.938-127.79,36.023
						l1.257,84.297C194.586,186.615,196.261,185.061,197.973,183.549z"/>
				</g>
				<path style="opacity:0.5;fill:#EDC49C;" d="M358.249,143.84l0.506,1.564C358.886,145.036,358.721,144.494,358.249,143.84z"/>
				<g>
					<path style="fill:#F6E1CC;" d="M69.978,29.244c5.911,22.766,48.707,21.968,80.874,27.35
						c27.451,4.594,40.548,26.35,42.621,30.104v101.797c-19.624-39.766-70.644-40.669-114.302-43.031
						c-43.758-2.367-48.891-16.773-48.891-16.773L69.978,29.244z"/>
					<path style="opacity:0.9;fill:#EDC49C;" d="M184.517,74.769c1.499,2.956,2.572,6.122,3.195,9.299
						c1.056,5.367,0.883,10.984,0.947,16.428c0.075,6.312,0.016,12.626-0.132,18.938c-0.247,10.484-0.907,20.961-0.956,31.447
						c-0.017,3.503-0.065,7.179-1.093,10.565c-0.848,2.792-2.849,5.85-6.322,5.094c-2.643-0.576-5.12-2.036-7.623-3.012
						c-1.488-0.579-2.993-1.111-4.507-1.614c10.648,6.036,19.494,14.519,25.447,26.582V86.697
						C192.588,85.093,189.688,80.202,184.517,74.769z"/>
					<path style="opacity:0.9;fill:#EDC49C;" d="M62.918,140.29c-4.021-1.58-8.338-3.256-11.815-5.835
						c-3.591-2.663-5.823-6.412-6.548-10.772c-0.848-5.106,0.129-10.293,1.662-15.185c1.601-5.109,3.7-10.066,5.501-15.11
						c3.763-10.539,7.316-21.201,12.217-31.303c1.218-2.512,2.508-4.992,3.917-7.406c1.181-2.022,2.336-4.158,3.952-5.891
						c2.556-2.741,5.947-4.026,9.72-3.927c1.975,0.051,3.914,0.356,5.836,0.769c-8.891-3.466-15.339-8.518-17.381-16.385
						l-39.697,99.445c0,0,5.133,14.406,48.891,16.773c1.676,0.09,3.364,0.179,5.06,0.268
						C77.04,144.209,69.769,142.981,62.918,140.29z"/>
					<path style="opacity:0.4;fill:#F6E1CC;" d="M89.503,128.793c1.356-3.857,15.164-61.362,15.164-61.362s1.145-9.808,11.444-9.808
						c0,0,25.75,0.841,38.911,4.484c0,0-8.583-4.764-22.889-5.605c-14.306-0.84-37.479-3.081-47.493-7.284
						c0,0,3.147,3.363,15.163,6.164c0,0,3.72,0,3.148,5.045c-0.521,4.6-16.057,65.969-21.138,74.262
						c-1.429,2.334-6.532,4.867-9.225,5.026c-0.833,0.049-1.722,0.074-2.622,0.044c12.198,2.38,13.017,3.49,51.316,5.773
						c0,0-25.793-6.379-30.352-8.675C90.931,136.857,86.893,136.219,89.503,128.793z"/>
				</g>
				<g>
					<path style="fill:#F6E1CC;" d="M319.676,24.465C242.299-6.919,195.184,82.943,193.111,86.697v101.797
						c17.143-21.657,42.59-41.271,85.141-51.127c57.837-13.396,81.712,4.643,80.503,8.037L319.676,24.465z"/>
					<path style="opacity:0.5;fill:#EDC49C;" d="M319.676,24.465c-23.736-9.628-44.622-7.845-62.236-0.639
						c5.599-1.566,11.358-2.624,17.156-2.979c7.51-0.459,15.474,0.174,22.29,3.539c3.154,1.558,8.616,3.077,10.805,5.82
						c2.841,3.557,19.52,64.676,23.428,76.44c0.971,2.924,1.93,5.852,2.853,8.791c0.601,1.908,1.336,3.776,1.823,5.718
						c0.753,3.015,1.21,7.149-2.085,8.918c-4.114,2.209-9.308,1.269-13.787,1.494c-3.877,0.195-7.773,0.623-11.633,1.211
						c31.278-2.008,46.934,6.861,49.958,11.063L319.676,24.465z"/>
					<path style="opacity:0.5;fill:#EDC49C;" d="M257.452,142.588c-5.66,1.77-11.3,3.499-16.796,5.729
						c-5.472,2.219-10.816,4.767-15.9,7.747c-1.866,1.095-3.689,2.281-5.589,3.318c-1.74,0.951-3.746,1.938-5.793,1.909
						c-4.122-0.057-5.538-3.805-5.899-7.25c-0.221-2.108-0.291-4.235-0.473-6.348c-0.262-3.05-0.512-6.099-0.745-9.151
						c-0.473-6.174-0.888-12.353-1.223-18.537c-0.336-6.205-0.601-12.414-0.765-18.626c-0.081-3.087-0.143-6.174-0.174-9.263
						c-0.029-2.833-0.14-5.692,0.083-8.52c1.091-13.791,8.881-25.233,17.924-35.555c-17.937,17.716-28.054,36.962-28.991,38.657
						v101.797c17.143-21.657,42.59-41.271,85.141-51.127c0.044-0.01,0.089-0.02,0.135-0.03
						C271.272,138.24,264.273,140.455,257.452,142.588z"/>
					<path style="opacity:0.8;fill:#EDC49C;" d="M205.668,174.534c-1.477,0.967-3.31,2.204-5.184,1.972
						c-1.219-0.152-1.974-1.435-2.345-2.456c-0.583-1.6-0.757-3.334-0.825-5.021c-0.065-1.64-0.018-3.276,0.027-4.915
						c0.069-2.541-0.069-5.096-0.144-7.636c-0.183-6.254-0.609-62.496-0.489-65.601c0.113-2.908,0.204-5.89,0.874-8.735
						c0.527-2.236,1.274-4.392,2.145-6.501c-3.951,6.048-6.198,10.301-6.615,11.056v101.797c3.839-4.852,8.097-9.599,12.868-14.157
						C205.877,174.404,205.772,174.467,205.668,174.534z"/>
					<path style="opacity:0.4;fill:#F6E1CC;" d="M278.928,128.61c-2.765,0.456-5.474,1.007-8.153,1.835
						c-2.73,0.845-5.306,1.01-8.145,1.082c-1.246,0.032-2.538,0.009-3.706-0.481c-1.074-0.453-1.194-1.695-1.294-2.696
						c-2.085-20.768-4.325-41.531-7.483-62.173c-0.406-2.652-0.56-5.381-0.892-8.054c-0.383-3.086-0.786-6.17-1.184-9.254
						c-0.359-2.786-0.83-5.581-0.742-8.399c0.094-3.063,2.837-6.054,4.961-8.041c2.737-2.561,6.519-4.337,9.926-5.829
						c3.132-1.37,6.895-2.363,10.304-2.659c0.376-0.033,1.099-1.207,0.631-1.214c-0.24-0.004-0.479-0.011-0.718-0.019
						c-2.74,0.664-5.456,1.435-8.147,2.264c-8.668,2.669-16.835,6.967-24.4,11.862c-8.831,5.718-16.492,12.992-23.087,21.075
						c-0.097,0.407,0.149,0.695,0.633,0.207c3.557-3.595,6.46-7.63,10.559-10.653c2.185-1.611,4.046-3.415,6.943-3.481
						c2.955-0.066,3.866,4.01,4.194,6.231c1.726,11.654,3.41,23.39,4.604,35.11c1.419,13.926,2.626,28.344,4.362,42.445
						c0.658,5.339,1.18,9.728-2.831,13.961c-0.999,1.056-1.93,2.175-2.91,3.249c-0.244,0.267-0.524,0.656-0.832,1.04
						c0.699-0.393,1.399-0.786,2.103-1.169c5.431-2.946,10.868-5.859,16.564-8.289c5.329-2.27,10.746-4.355,16.293-6.058
						c4.423-1.358,8.925-2.521,13.477-3.443C286.27,127.151,282.571,128.011,278.928,128.61z"/>
				</g>
			</g>
			<path style="fill:#EDC49C;" d="M358.249,143.84L319.676,24.465c-4.012-1.627-7.94-2.921-11.787-3.926
				c1.549,0.465,8.204,2.74,10.615,8.135l34.78,106.971c0,0,1.999,3.383-3.303,2.589
				C354.454,140.226,357.164,142.333,358.249,143.84z"/>
		</g>
	</g>
</g>
</svg>
