<svg width="486" height="137" viewBox="0 0 486 137" fill="none" xmlns="http://www.w3.org/2000/svg">
<path d="M431.222 87.2764C430.221 93.7497 428.9 100.472 424.397 105.77C417.67 113.683 405.557 116.59 394.321 118.702C340.1 128.9 103.998 133.256 48.5425 130.659C40.0358 130.26 31.1438 129.604 23.9585 125.724C14.6998 120.727 10.1438 111.42 7.10381 102.482C-0.454853 80.2671 -2.01352 56.6017 2.58115 33.8111C5.64648 18.6031 16.7958 7.37107 32.5598 5.65774C44.3398 4.3764 56.4172 6.4564 68.2252 6.9724C95.8852 8.1844 120.689 11.0017 147.018 12.1751C172.836 13.3257 198.094 15.8644 224.533 17.1484C226.64 17.2497 228.78 17.0911 230.885 17.2071C272.198 19.4911 313.514 21.7777 354.838 23.8617C359.981 24.1311 365.124 24.4097 370.264 24.6977C386.668 25.6164 403.065 26.6377 419.44 27.9737C438.045 29.5644 435.288 44.3284 434.356 58.6724C433.734 68.2364 432.69 77.7791 431.222 87.2764Z" fill="#FEA987"/>
<g opacity="0.149994">
<path d="M103.193 9.21133C91.8352 8.34066 80.3073 7.50199 68.2246 6.97266C56.4166 6.45666 44.3406 4.37666 32.5606 5.65666C16.7966 7.37133 5.64592 18.6033 2.58192 33.8113C-1.17541 52.446 -0.812738 71.6673 3.57393 90.202C21.5939 85.258 38.7739 77.2407 54.0673 66.5047C61.6006 61.2153 68.6739 55.2727 75.1979 48.7793C81.0912 42.9153 86.5379 36.6007 91.4739 29.91C95.2739 24.7607 103.027 16.322 103.211 9.634C103.215 9.486 103.195 9.35533 103.193 9.21133Z" fill="white"/>
</g>
<path d="M424.397 105.769C428.9 100.472 430.222 93.7492 431.222 87.2759C432.69 77.7799 433.734 68.2359 434.356 58.6719C435.288 44.3279 438.045 29.5639 419.44 27.9745C403.065 26.6372 386.668 25.6159 370.264 24.6972C365.124 24.4092 359.98 24.1319 354.838 23.8612C350.297 23.6319 345.757 23.3932 341.214 23.1585C345.189 32.7945 351.502 42.1865 355.733 51.2559C361.908 64.4905 367.592 77.9532 372.773 91.6079C376.385 101.131 379.722 110.755 382.84 120.451C387.248 119.888 391.113 119.307 394.321 118.703C405.557 116.589 417.67 113.684 424.397 105.769Z" fill="#EFCDCD"/>
<path d="M40.6919 12.3226C38.0173 12.3226 35.6079 12.4426 33.3253 12.6906C21.1733 14.0133 12.0493 22.6413 9.51593 35.2093C5.17726 56.736 6.6586 79.212 13.8013 100.204C16.1306 107.047 19.7706 115.424 27.3186 119.499C33.0959 122.617 40.8106 123.213 48.8746 123.591C59.0333 124.067 75.7186 124.319 97.1253 124.319C192.773 124.319 351.609 119.537 393.015 111.749C402.812 109.907 413.709 107.419 419.007 101.187C422.289 97.3253 423.351 91.8933 424.229 86.196C425.657 76.9506 426.691 67.536 427.297 58.2146C427.372 57.0293 427.463 55.8426 427.551 54.6573C428.692 39.4453 428.028 35.8093 418.861 35.0253C404.811 33.8786 389.7 32.872 369.868 31.7613C364.736 31.4733 359.601 31.196 354.48 30.928C314.28 28.9013 273.416 26.644 233.9 24.46L230.496 24.272C230 24.2453 229.5 24.2386 229 24.2386L227.701 24.248C227.112 24.2546 226.507 24.26 226.257 24.26C225.567 24.26 224.876 24.248 224.191 24.2146C211.307 23.5906 198.575 22.6586 186.26 21.7573C173.275 20.808 159.905 19.8306 146.704 19.2426C133.655 18.6613 120.752 17.6626 108.275 16.696C95.2786 15.6906 81.8666 14.6533 67.9159 14.0413C64.0346 13.872 60.1399 13.5413 56.3746 13.22C50.9413 12.7586 45.8093 12.3226 40.6919 12.3226ZM97.1253 125.605C75.6986 125.605 58.9933 125.353 48.8133 124.876C40.5973 124.491 32.7226 123.877 26.7079 120.631C18.7653 116.344 14.9879 107.684 12.5839 100.617C5.36793 79.4093 3.87193 56.704 8.2546 34.9546C10.9026 21.8173 20.4573 12.796 33.1866 11.412C35.5159 11.1586 37.9706 11.036 40.6919 11.036C45.8639 11.036 51.0226 11.4746 56.4839 11.9386C60.2373 12.2573 64.1173 12.588 67.9719 12.756C81.9453 13.368 95.3666 14.4066 108.347 15.412C120.841 16.3786 133.732 17.3773 146.761 17.9586C159.981 18.5466 173.359 19.5253 186.295 20.4706C198.66 21.376 211.385 22.3053 224.252 22.9306C224.917 22.9613 225.587 22.9733 226.257 22.9733C226.504 22.9733 227.105 22.968 227.689 22.9613L229 22.952C229.524 22.952 230.045 22.96 230.567 22.988L233.969 23.176C273.485 25.3586 314.348 27.616 354.547 29.6426C359.671 29.9106 364.805 30.1893 369.94 30.4773C389.784 31.588 404.905 32.596 418.969 33.744C429.457 34.64 429.969 39.6106 428.833 54.7546C428.745 55.9333 428.656 57.1173 428.581 58.2973C427.971 67.656 426.936 77.1093 425.501 86.392C424.592 92.2786 423.487 97.9026 419.987 102.02C414.417 108.572 403.267 111.129 393.251 113.013C351.775 120.815 192.823 125.605 97.1253 125.605Z" fill="white"/>
<path d="M373.565 42.2107L419.008 -2.57142e-06L422.336 4.712L442.229 28.2667L404.248 53.5707L381 50.6293L374.93 45.112L373.565 42.2107Z" fill="#65857B"/>
<path d="M375.388 45.348L423.615 2.63864C423.615 2.63864 434.017 22.0946 462.628 9.68131L416.763 45.368L397.735 52.08L383.891 51.8306L377.237 48.0466L375.388 45.348Z" fill="#FFEDB7"/>
<path d="M435.433 12.1748C419.764 25.1695 404.141 38.5001 388.891 51.9215L390.064 51.9428C390.509 51.6468 390.952 51.3455 391.397 51.0481C406.207 38.0481 421.344 25.1415 436.529 12.5561C436.153 12.4361 435.792 12.3081 435.433 12.1748Z" fill="#ECD5A7"/>
<path d="M431.052 10.0336L382.98 51.3136L383.891 51.8309H383.903L431.956 10.5656C431.645 10.3909 431.343 10.2149 431.052 10.0336Z" fill="#ECD5A7"/>
<path d="M391.801 51.9737C409.837 39.9337 427.625 27.1124 444.739 13.8137C444.21 13.8097 443.695 13.7897 443.186 13.759C426.427 26.747 409.033 39.271 391.397 51.0484C391.054 51.3484 390.71 51.647 390.369 51.947L391.801 51.9737Z" fill="#ECD5A7"/>
<path d="M377.237 48.0472L377.497 48.1952C384.529 39.7552 393.394 32.8165 401.972 26.1058C410.141 19.7138 418.549 13.1272 425.445 5.19785C425.21 4.92051 424.994 4.65518 424.809 4.40985C417.95 12.3285 409.536 18.9272 401.36 25.3245C392.778 32.0365 383.913 38.9805 376.829 47.4525L377.237 48.0472Z" fill="#ECD5A7"/>
<path d="M451.885 13.1039C451.201 13.2372 450.531 13.3532 449.875 13.4479C432.471 27.4452 414.035 40.4145 394.979 52.0305L396.812 52.0639C415.943 40.3225 434.445 27.2332 451.885 13.1039Z" fill="#ECD5A7"/>
<path d="M428.367 8.09867C428.103 7.87867 427.85 7.66 427.611 7.44267L380.14 49.6987L381.052 50.2173L428.367 8.09867Z" fill="#ECD5A7"/>
<path d="M406.92 47.1163C406.92 47.1163 383.556 59.3176 373.564 42.2109C373.564 42.2109 390.494 77.8949 395.724 93.2029C400.954 108.51 409.704 132.262 409.704 132.262C409.704 132.262 426.387 143.791 437.46 129.764L406.92 47.1163Z" fill="#89A49C"/>
<path d="M464.281 7.01277C446.317 21.6421 427.032 35.6154 406.92 47.1168L437.461 129.763C454.369 116.525 469.801 101.473 485.365 92.2714C477.052 64.1901 470.014 35.7328 464.281 7.01277Z" fill="#A7BFB9"/>
<path d="M456.795 28.5395L425.55 50.1421C429.57 59.5195 434.694 71.8941 434.694 71.8941C447.897 57.7115 463.93 50.1421 463.93 50.1421C460.495 43.4061 456.795 28.5395 456.795 28.5395Z" fill="#FFF0E9"/>
<path d="M390.319 51.3258C397.064 66.3258 401.559 82.5858 406.838 98.1298C411.159 110.854 415.45 123.587 419.724 136.326C420.772 136.525 421.864 136.659 422.988 136.699C418.376 122.949 413.743 109.206 409.076 95.4725C404.07 80.7392 399.754 65.4165 393.482 51.1339C392.447 51.2499 391.388 51.3192 390.319 51.3258Z" fill="#FFF0E9"/>
<g opacity="0.149994">
<path d="M421.045 38.5589C421.837 39.1069 422.515 39.5603 422.975 39.8829C438.62 50.7896 457.185 57.4216 476.181 59.0576C471.74 41.8229 467.765 24.4669 464.281 7.01359C450.568 18.1816 436.08 28.9643 421.045 38.5589Z" fill="white"/>
</g>
<path d="M437.461 129.764L433.017 117.737C423.508 119.996 413.192 118.749 404.521 114.228C403.933 113.92 403.362 113.587 402.792 113.251C406.489 123.533 409.705 132.263 409.705 132.263C409.705 132.263 426.385 143.791 437.461 129.764Z" fill="#E4CEEA"/>
</svg>
