<svg width="486" height="146" viewBox="0 0 486 146" fill="none" xmlns="http://www.w3.org/2000/svg">
<path d="M40.1027 96.2912C41.444 103.355 42.988 110.826 47.996 116.105C54.4907 122.95 64.9294 124.261 74.4587 125.151C117.152 129.143 365.597 133.135 408.291 137.127C417.147 137.957 426.596 138.678 434.452 134.611C442.695 130.345 447.392 121.738 451.487 113.574C462.455 91.7085 472.571 69.4392 481.807 46.8298C484.208 40.9525 486.557 34.3312 484.092 28.4792C482.161 23.8978 477.548 20.7952 472.675 19.3698C467.8 17.9445 462.624 17.9552 457.533 17.9765C388.523 18.2738 113.759 18.5712 44.748 18.8698C41.036 18.8858 37.2267 18.9178 33.76 20.2125C27.612 22.5085 26.7827 26.3818 27.8774 31.9285C29.2974 39.1152 30.612 46.3232 31.9787 53.5205C34.6867 67.7778 37.3947 82.0338 40.1027 96.2912Z" fill="#AAC294"/>
<g opacity="0.149994">
<path d="M472.674 19.3698C467.801 17.9445 462.624 17.9539 457.534 17.9765C441.646 18.0445 414.85 18.1138 382.174 18.1818C386.302 25.2952 390.916 32.1258 396.022 38.5712C402.285 46.4765 409.249 53.8285 416.822 60.4898C430.561 72.5725 446.293 82.3672 463.158 89.4565C469.724 75.3952 475.944 61.1818 481.808 46.8298C484.209 40.9525 486.557 34.3312 484.092 28.4792C482.161 23.8978 477.548 20.7965 472.674 19.3698Z" fill="white"/>
</g>
<path d="M33.761 20.2124C27.613 22.5084 26.7823 26.3817 27.8783 31.9284C29.297 39.1164 30.6116 46.323 31.9796 53.5204C34.6863 67.7777 37.3943 82.0337 40.1023 96.291C41.445 103.355 42.9876 110.826 47.997 116.104C54.4903 122.95 64.9276 124.26 74.4583 125.152C86.6556 126.292 115.653 127.432 151.845 128.574C136.76 116.956 125.256 100.44 117.649 82.799C109.322 63.4897 105.117 42.7577 101.884 22.0724C101.698 20.8897 101.53 19.7697 101.346 18.7044C77.205 18.7604 57.4756 18.815 44.7476 18.8697C41.0356 18.8857 37.2276 18.9177 33.761 20.2124Z" fill="#C6E1D7"/>
<path d="M459.311 25.0464L457.563 25.0517C423.034 25.1997 335.656 25.3517 251.154 25.4984C166.66 25.6437 79.2924 25.7957 44.7791 25.945C41.7204 25.9584 38.5617 25.9717 36.235 26.8397C34.2324 27.5877 34.2324 27.5877 34.8191 30.5584C35.7697 35.3771 36.675 40.205 37.579 45.0317L37.7284 45.8237C38.127 47.9504 38.5257 50.0757 38.9297 52.201L47.0537 94.9704C48.3804 101.957 49.6711 107.59 53.1297 111.236C57.7604 116.116 66.1724 117.27 75.1164 118.106C96.2297 120.081 170.107 122.106 241.551 124.066C316.546 126.124 387.366 128.065 408.948 130.084C412.396 130.406 415.763 130.696 419.02 130.696C424.21 130.696 428.079 129.944 431.199 128.328C437.402 125.117 441.343 118.017 445.163 110.402C456.004 88.7877 466.128 66.4984 475.258 44.1544C477.191 39.4224 478.962 34.5264 477.571 31.2264C476.667 29.0797 474.03 27.1384 470.687 26.1597C467.174 25.1317 463.14 25.0464 459.311 25.0464ZM419.02 131.982C415.708 131.982 412.31 131.69 408.83 131.365C387.287 129.35 316.488 127.408 241.534 125.353C170.051 123.393 96.1524 121.366 74.9977 119.388C65.7991 118.528 57.1337 117.325 52.1964 112.121C48.4964 108.221 47.1564 102.408 45.7897 95.2104L37.6657 52.4397C37.2617 50.3144 36.863 48.1877 36.4644 46.0624L36.315 45.269C35.411 40.445 34.507 35.6224 33.5564 30.8077C32.8177 27.065 33.2164 26.5944 35.7844 25.6357C38.3257 24.6864 41.6017 24.6717 44.7684 24.6584C79.2884 24.509 166.658 24.3571 251.151 24.2117C335.652 24.0651 423.03 23.913 457.56 23.765L459.308 23.7597C463.234 23.7597 467.372 23.8504 471.05 24.9264C474.752 26.0091 477.706 28.233 478.758 30.7264C480.339 34.481 478.484 39.6584 476.448 44.6397C467.307 67.017 457.168 89.3357 446.312 110.978C442.394 118.789 438.336 126.081 431.79 129.47C428.48 131.184 424.423 131.982 419.02 131.982Z" fill="white"/>
<path d="M0.160034 27.9213C0.160034 27.9213 49.58 9.15333 69.5494 0L77.6667 11.9413L9.76937 38.8373L1.7627 31.396L0.160034 27.9213Z" fill="#B6422F"/>
<path d="M1.76868 30.4721L73.5873 3.04942C73.5873 3.04942 77.266 9.07341 85.7313 9.22941L15.6393 35.9107L6.69668 37.1587L1.76868 30.4721Z" fill="#FFEDB7"/>
<path d="M78.7264 7.49746C54.7478 15.8108 30.8211 24.8495 7.42377 34.4521L7.81177 35.3975C31.5184 25.6681 55.7691 16.5161 80.0651 8.11346C79.5891 7.92279 79.1478 7.71612 78.7264 7.49746Z" fill="#ECD5A7"/>
<path d="M2.23486 31.1042L2.8642 31.9589L74.6695 4.41758C74.3762 4.09892 74.1429 3.81625 73.9709 3.59092L2.23486 31.1042Z" fill="#ECD5A7"/>
<path d="M76.324 5.94864C76.0014 5.69264 75.712 5.44064 75.4494 5.19531L3.96136 33.4486L4.58937 34.2993L76.324 5.94864Z" fill="#ECD5A7"/>
<path d="M14.1639 33.9662C14.1639 33.9662 4.35988 36.7542 0.159885 27.9209C-1.26678 30.1742 7.24788 73.9196 10.0652 87.7902C12.7266 100.901 18.0652 125.885 20.0052 134.945C20.7692 138.505 22.7519 141.732 25.7346 143.817C28.1359 145.494 31.3252 146.605 35.1319 145.356L14.1639 33.9662Z" fill="#CF563A"/>
<path d="M14.1639 33.9663L35.1319 145.356C35.1319 145.356 62.9385 130.12 104.403 116.59C104.403 116.59 92.8332 72.5303 92.3185 7.8316C92.3185 7.8316 72.0692 10.6596 14.1639 33.9663Z" fill="#EC724D"/>
<path d="M40.2472 119.089C40.2472 119.089 58.4459 106.222 91.4512 98.6473C91.4512 98.6473 92.7112 106.567 94.5165 112.283C94.5165 112.283 58.8272 122.813 42.9779 134.058L40.2472 119.089Z" fill="#FEA987"/>
<path d="M2.84161 49.627C3.10828 51.1643 3.38428 52.7363 3.66961 54.327C8.41095 56.0603 13.5909 56.9817 18.3736 56.3297L17.6109 52.2763C12.7883 52.887 7.44695 51.6377 2.84161 49.627Z" fill="#FEA987"/>
<path d="M20.3709 66.9402L19.6403 63.0602C14.9843 63.9882 9.69892 63.4389 5.01892 61.7456C5.29892 63.2562 5.58025 64.7616 5.86025 66.2469C5.92159 66.2616 5.98025 66.2816 6.04159 66.2962C10.2149 67.2549 15.5829 67.7216 20.3709 66.9402Z" fill="#FEA987"/>
<path d="M21.5396 134.137C25.325 136.311 29.4263 137.97 33.5703 137.062L32.7983 132.963C28.0756 133.906 21.7596 130.794 18.257 126.763C18.7556 129.098 19.2036 131.193 19.5756 132.937C20.209 133.349 20.8636 133.747 21.5396 134.137Z" fill="#FEA987"/>
<path d="M22.102 76.1361L21.3633 72.2095C17.1247 73.2561 11.7487 72.9548 6.88867 71.6575C7.18201 73.1815 7.46734 74.6628 7.74467 76.0881C12.5953 77.1081 17.7073 77.1855 22.102 76.1361Z" fill="#FEA987"/>
<g opacity="0.149994">
<path d="M92.3181 7.83212C92.3181 7.83212 77.6088 9.88811 37.4341 24.9148C37.5461 25.4974 37.6501 26.0401 37.7288 26.5148C39.8875 39.5068 45.5035 51.9081 53.7648 62.1574C58.4115 67.9201 63.9021 73.0094 70.0675 77.1148C78.9341 83.0201 88.8541 86.9041 99.1035 89.9454C95.9835 70.7361 92.5915 42.1948 92.3181 7.83212Z" fill="white"/>
</g>
<path d="M20.0058 134.945C20.7684 138.504 22.7524 141.732 25.7351 143.816C28.1364 145.495 31.3244 146.605 35.1311 145.356L29.5551 115.731C28.9458 115.296 28.3364 114.865 27.7364 114.427C21.7511 110.059 16.5271 104.667 12.2951 98.5841C15.0391 111.72 18.5191 128.004 20.0058 134.945Z" fill="#E4CEEA"/>
</svg>
