<svg width="505" height="152" viewBox="0 0 505 152" fill="none" xmlns="http://www.w3.org/2000/svg">
<path d="M35.728 85.2061C37.1014 104.286 42.096 123.959 61.9694 133.889C71.3747 138.583 82.4774 139.579 93.2254 140.403C168.093 146.145 362.931 148.281 438.059 146.794C451.099 146.537 464.941 145.949 475.704 139.398C488.248 131.763 493.659 117.849 497.123 104.689C501.336 88.6968 503.84 72.3501 504.599 55.9408C505.484 36.7248 498.693 20.6501 475.447 16.6768C462.031 14.3821 448.416 14.6154 434.859 14.8354C426.733 14.9661 418.609 15.1621 410.485 15.3781C400.516 15.6448 390.549 15.9488 380.583 16.2714C369.436 16.6314 358.289 17.0181 347.144 17.4208C335.483 17.8421 323.821 18.2821 312.161 18.7354C300.649 19.1848 289.137 19.6488 277.627 20.1261C266.929 20.5701 256.232 21.0274 245.535 21.5008C236.316 21.9074 227.096 22.3261 217.879 22.7661C210.801 23.1034 203.724 23.4514 196.648 23.8328C195.192 23.9114 193.735 23.9914 192.277 24.0741C147.397 26.6314 102.515 29.6221 57.5987 31.6234C49.96 31.9648 39.5147 31.7341 36.6347 39.6701C33.5374 48.2021 35.0627 60.1301 35.172 68.9848C35.236 74.1728 35.3294 79.6648 35.728 85.2061Z" fill="#4F5E3B"/>
<path d="M462.089 22.7894C459.972 22.7894 457.861 22.8361 455.776 22.8828L454.297 22.9161C445.043 22.9161 435.633 23.1761 426.535 23.4281C420.423 23.5948 414.101 23.7694 407.888 23.8641C397.543 24.0881 387.195 24.3428 376.847 24.6134C365.341 24.9161 353.839 25.2388 342.336 25.5788C330.388 25.9308 318.443 26.3014 306.497 26.6868C294.82 27.0641 283.145 27.4574 271.471 27.8694C260.78 28.2454 250.089 28.6374 239.399 29.0521C230.405 29.4014 221.412 29.7654 212.421 30.1654C205.091 30.4921 198.928 30.7814 192.679 31.1388C179.057 31.9148 165.433 32.7308 151.808 33.5468C120.98 35.3935 89.208 37.2974 57.9147 38.6921L56.1227 38.7628C49.9067 39.0001 44.2467 39.4321 43.2854 42.0841C41.3574 47.3934 41.7107 55.3508 42.024 62.3721C42.1267 64.6934 42.2214 66.8308 42.2467 68.8988C42.3094 73.9801 42.4014 79.3854 42.784 84.6988C44.4214 107.436 51.3134 120.655 65.1294 127.559C73.6347 131.805 84.7961 132.661 93.7627 133.349C151.592 137.784 283.755 140.176 378.748 140.176C402.375 140.176 422.836 140.019 437.919 139.72C450.797 139.467 463.097 138.788 472.027 133.353C482.765 126.817 487.281 114.284 490.283 102.887C494.359 87.4068 496.797 71.5028 497.531 55.6148C498.403 36.6708 491.007 26.5148 474.255 23.6494C470.245 22.9641 466.152 22.7894 462.089 22.7894ZM378.748 141.463C283.729 141.463 151.525 139.069 93.668 134.632C84.5854 133.935 73.2854 133.068 64.5547 128.708C50.284 121.58 43.1747 108.036 41.5027 84.7908C41.1174 79.4428 41.0227 74.0148 40.9601 68.9148C40.9361 66.8681 40.8401 64.7401 40.7414 62.4868C40.4214 55.2881 40.0614 47.1961 42.076 41.6468C43.3134 38.2308 48.9001 37.7521 56.0734 37.4788L57.8601 37.4068C89.1414 36.0121 120.908 34.1094 151.629 32.2681C165.357 31.4468 178.981 30.6308 192.607 29.8548C198.861 29.4974 205.028 29.2068 212.364 28.8801C221.357 28.4814 230.353 28.1161 239.349 27.7668C250.04 27.3521 260.733 26.9601 271.425 26.5841C283.101 26.1721 294.779 25.7788 306.455 25.4014C318.401 25.0161 330.349 24.6454 342.297 24.2921C353.801 23.9521 365.307 23.6294 376.813 23.3268C387.163 23.0561 397.512 22.8015 407.864 22.5775C414.073 22.4841 420.391 22.3094 426.5 22.1414C435.607 21.8894 445.024 21.6308 454.284 21.6308L455.747 21.5961C461.893 21.4601 468.248 21.3174 474.472 22.3814C491.989 25.3761 499.724 35.9561 498.816 55.6734C498.077 71.6508 495.625 87.6481 491.525 103.215C488.459 114.861 483.824 127.679 472.695 134.452C463.493 140.053 451.005 140.749 437.944 141.007C422.852 141.305 402.383 141.463 378.748 141.463Z" fill="white"/>
<g opacity="0.149994">
<path d="M497.264 104.125C501.387 88.3135 503.849 72.1575 504.599 55.9388C505.484 36.7241 498.693 20.6508 475.447 16.6761C462.029 14.3815 448.416 14.6135 434.859 14.8335C426.735 14.9668 418.609 15.1615 410.485 15.3775C402.804 15.5841 395.125 15.8241 387.444 16.0655C387.68 16.7681 387.943 17.4908 388.26 18.2548C400.207 46.8868 429.941 71.8881 456.128 86.9348C469.048 94.3588 482.895 100.185 497.264 104.125Z" fill="white"/>
</g>
<path d="M140.688 143.021C134.749 101.369 116.304 61.5212 88.3051 30.1132C78.0717 30.6559 67.8357 31.1679 57.5984 31.6239C49.9597 31.9652 39.5144 31.7332 36.6344 39.6692C33.5371 48.2025 35.0637 60.1305 35.1717 68.9852C35.2357 74.1719 35.3291 79.6639 35.7277 85.2065C37.1024 104.285 42.0971 123.96 61.9691 133.888C71.3744 138.584 82.4771 139.58 93.2251 140.404C105.965 141.381 122.182 142.253 140.688 143.021Z" fill="#C7E6CC"/>
<path d="M96.0444 65.6189C96.0444 65.6189 45.4324 13.3283 33.9138 0.0376129L32.6004 12.0669C32.6004 12.0669 17.1191 46.9069 18.1191 47.0843C19.1178 47.2603 77.5924 92.0909 77.5924 92.0909L94.2484 81.9496L96.0444 65.6189Z" fill="#587136"/>
<path d="M95.4827 68.8976L29.396 4.46823C29.396 4.46823 29.1947 26.3522 7.04536 32.2002L71.8987 80.0416L88.732 86.0669L95.4827 68.8976Z" fill="#FFEDB7"/>
<path d="M89.0178 80.7712C66.4311 61.7725 42.7591 43.5312 18.6191 26.4858C18.3351 26.7165 18.0338 26.9392 17.7338 27.1618C41.9431 44.2445 65.6844 62.5338 88.3338 81.5845C88.4338 81.6685 88.5551 81.7098 88.6751 81.7098C88.8258 81.7098 88.9778 81.6445 89.0818 81.5205C89.2711 81.2952 89.2418 80.9605 89.0178 80.7712Z" fill="#ECD5A7"/>
<path d="M82.4234 80.7868C61.622 61.6188 39.0434 44.1615 15.282 28.7921C14.942 28.9935 14.6034 29.1961 14.2474 29.3881C38.126 44.7975 60.8127 62.3188 81.702 81.5695C81.8047 81.6628 81.934 81.7095 82.062 81.7095C82.206 81.7095 82.3487 81.6508 82.454 81.5375C82.6527 81.3215 82.6394 80.9855 82.4234 80.7868Z" fill="#ECD5A7"/>
<path d="M28.1252 11.8265C38.5012 19.8865 48.9026 28.2159 58.6866 37.0225C65.9626 43.5705 73.0732 50.5439 79.9719 57.3065L94.4559 71.5079L94.8786 70.4345L80.6959 56.5279C73.8106 49.7759 66.6906 42.7959 59.3986 36.2332C49.4812 27.3052 38.9372 18.8745 28.4319 10.7172C28.3399 11.0772 28.2359 11.4479 28.1252 11.8265Z" fill="#ECD5A7"/>
<path d="M22.579 22.5239C22.3563 22.7972 22.1323 23.0692 21.895 23.3372L91.107 80.0252L91.5163 78.9865L22.579 22.5239Z" fill="#ECD5A7"/>
<path d="M93.3544 74.3103L67.7944 49.9876C55.0211 37.8329 41.8704 25.3383 26.6171 15.9303C26.4744 16.2503 26.3211 16.5743 26.1624 16.8983C41.2824 26.2463 54.3584 38.6703 67.0611 50.7583L92.7984 75.2503C76.9064 65.0356 62.7624 52.0103 48.9971 39.3209C41.3704 32.2876 33.5464 25.0769 25.4184 18.3329C25.2464 18.6423 25.0624 18.9529 24.8758 19.2636C32.9358 25.9583 40.7038 33.1183 48.2771 40.1023C62.1718 52.9116 76.4491 66.0636 92.5491 76.3569L93.3544 74.3103Z" fill="#ECD5A7"/>
<path d="M74.133 77.6801C74.133 77.6801 91.993 83.4441 96.045 65.6188L116.233 138.693C116.233 138.693 113.33 156.32 95.993 149.456L74.133 77.6801Z" fill="#749C50"/>
<path d="M0.118698 27.2673C0.118698 27.2673 33.028 88.3607 41.1787 126.023C41.1787 126.023 77.36 138.69 95.9934 149.457L74.1334 77.6807C74.1334 77.6807 38.176 43.154 0.118698 27.2673Z" fill="#81AE62"/>
<path d="M77.6519 89.2335L84.0199 110.141C88.8439 109.672 93.5772 108.544 98.0372 106.631C100.907 105.397 103.605 103.865 106.123 102.099L99.7506 79.0321C97.0759 82.7655 93.4092 85.7575 89.0119 87.4868C85.4039 88.9081 81.5452 89.3855 77.6519 89.2335Z" fill="#AAC294"/>
<path d="M114.049 130.791C111.618 135.455 108.28 139.855 103.67 141.612C100.376 142.868 97.0518 142.879 93.7904 142.221L94.8264 145.628C98.1878 146.12 101.588 145.944 104.93 144.613C109.321 142.868 112.661 139.248 115.24 135.099L114.049 130.791Z" fill="#AAC294"/>
<g opacity="0.149994">
<path d="M59.3811 64.7921C45.3918 53.3095 23.1478 36.8801 0.118439 27.2668C0.118439 27.2668 23.8638 71.3508 36.0091 107.709C42.1104 101.845 47.3091 95.0415 51.3051 87.5801C55.1251 80.4481 57.8398 72.7335 59.3811 64.7921Z" fill="white"/>
</g>
</svg>
